<svg width="48" height="48" viewBox="0 0 48 48" fill="none" xmlns="http://www.w3.org/2000/svg">
<path d="M40 0C44.4183 0 48 3.58172 48 8V40C48 44.4183 44.4183 48 40 48H8C3.58172 48 0 44.4183 0 40V8C5.15405e-07 3.58172 3.58172 0 8 0H40Z" fill="#D4D4D4"/>
<path d="M40 0C44.4183 0 48 3.58172 48 8V40C48 44.4183 44.4183 48 40 48H8C3.58172 48 0 44.4183 0 40V8C5.15405e-07 3.58172 3.58172 0 8 0H40Z" stroke="#E5E7EB"/>
<path d="M30 32H18V16H30V32Z" stroke="#E5E7EB"/>
<g clip-path="url(#clip0_222_3416)">
<path d="M20 16C18.8969 16 18 16.8969 18 18V30C18 31.1031 18.8969 32 20 32H28C29.1031 32 30 31.1031 30 30V21H26C25.4469 21 25 20.5531 25 20V16H20ZM26 16V20H30L26 16ZM21 17.5C21 17.225 21.225 17 21.5 17H22.5C22.775 17 23 17.225 23 17.5C23 17.775 22.775 18 22.5 18H21.5C21.225 18 21 17.775 21 17.5ZM21 19.5C21 19.225 21.225 19 21.5 19H22.5C22.775 19 23 19.225 23 19.5C23 19.775 22.775 20 22.5 20H21.5C21.225 20 21 19.775 21 19.5ZM21 21.5C21 21.225 21.225 21 21.5 21H22.5C22.775 21 23 21.225 23 21.5C23 21.775 22.775 22 22.5 22H21.5C21.225 22 21 21.775 21 21.5ZM20.8031 23.7438C20.9187 23.3063 21.3156 23 21.7687 23H22.2312C22.6844 23 23.0813 23.3031 23.1969 23.7438L23.9313 26.5C23.975 26.6687 23.9969 26.8406 23.9969 27.0125C23.9969 28.1125 23.0969 29.0031 21.9969 29.0031C20.8969 29.0031 19.9969 28.1125 19.9969 27.0125C19.9969 26.8406 20.0187 26.6656 20.0625 26.5L20.7969 23.7438H20.8031ZM21.5 26.5C21.225 26.5 21 26.725 21 27C21 27.275 21.225 27.5 21.5 27.5H22.5C22.775 27.5 23 27.275 23 27C23 26.725 22.775 26.5 22.5 26.5H21.5Z" fill="#525252"/>
</g>
<path d="M40 0C44.4183 0 48 3.58172 48 8V40C48 44.4183 44.4183 48 40 48H8C3.58172 48 0 44.4183 0 40V8C5.15405e-07 3.58172 3.58172 0 8 0H40Z" fill="black" fill-opacity="0.3"/>
<path d="M40 0C44.4183 0 48 3.58172 48 8V40C48 44.4183 44.4183 48 40 48H8C3.58172 48 0 44.4183 0 40V8C5.15405e-07 3.58172 3.58172 0 8 0H40Z" stroke="#E5E7EB"/>
<path d="M29.25 30H18.75V18H29.25V30Z" stroke="#E5E7EB"/>
<g clip-path="url(#clip1_222_3416)">
<path d="M22.125 21.375V22.5H25.875V21.375C25.875 20.3391 25.0359 19.5 24 19.5C22.9641 19.5 22.125 20.3391 22.125 21.375ZM20.625 22.5V21.375C20.625 19.5117 22.1367 18 24 18C25.8633 18 27.375 19.5117 27.375 21.375V22.5H27.75C28.5773 22.5 29.25 23.1727 29.25 24V28.5C29.25 29.3273 28.5773 30 27.75 30H20.25C19.4227 30 18.75 29.3273 18.75 28.5V24C18.75 23.1727 19.4227 22.5 20.25 22.5H20.625Z" fill="white"/>
</g>
<defs>
<clipPath id="clip0_222_3416">
<path d="M18 16H30V32H18V16Z" fill="white"/>
</clipPath>
<clipPath id="clip1_222_3416">
<path d="M18.75 18H29.25V30H18.75V18Z" fill="white"/>
</clipPath>
</defs>
</svg>
