<svg width="30" height="32" viewBox="0 0 30 32" fill="none" xmlns="http://www.w3.org/2000/svg">
<path d="M30 32H0V0H30V32Z" stroke="#E5E7EB"/>
<g clip-path="url(#clip0_222_3141)">
<g clip-path="url(#clip1_222_3141)">
<path d="M11 9V10H9.5C8.67188 10 8 10.6719 8 11.5V13H22V11.5C22 10.6719 21.3281 10 20.5 10H19V9C19 8.44687 18.5531 8 18 8C17.4469 8 17 8.44687 17 9V10H13V9C13 8.44687 12.5531 8 12 8C11.4469 8 11 8.44687 11 9ZM22 14H8V22.5C8 23.3281 8.67188 24 9.5 24H20.5C21.3281 24 22 23.3281 22 22.5V14Z" fill="#737373"/>
</g>
</g>
<defs>
<clipPath id="clip0_222_3141">
<rect width="14" height="16" fill="white" transform="translate(8 8)"/>
</clipPath>
<clipPath id="clip1_222_3141">
<path d="M8 8H22V24H8V8Z" fill="white"/>
</clipPath>
</defs>
</svg>
