<svg width="30" height="32" viewBox="0 0 30 32" fill="none" xmlns="http://www.w3.org/2000/svg">
<path d="M30 32H0V0H30V32Z" stroke="#E5E7EB"/>
<g clip-path="url(#clip0_222_3142)">
<g clip-path="url(#clip1_222_3142)">
<path d="M19.3813 10.6186C18.6188 9.85605 17.3813 9.85605 16.6188 10.6186L10.8688 16.3686C9.55322 17.6842 9.55322 19.8154 10.8688 21.1311C12.1845 22.4467 14.3157 22.4467 15.6313 21.1311L20.3813 16.3811C20.722 16.0404 21.2782 16.0404 21.6188 16.3811C21.9595 16.7217 21.9595 17.2779 21.6188 17.6186L16.8688 22.3686C14.8688 24.3686 11.6313 24.3686 9.63135 22.3686C7.63135 20.3686 7.63135 17.1311 9.63135 15.1311L15.3813 9.38105C16.8282 7.93418 19.172 7.93418 20.6188 9.38105C22.0657 10.8279 22.0657 13.1717 20.6188 14.6186L15.1188 20.1186C14.2251 21.0123 12.7751 21.0123 11.8813 20.1186C10.9876 19.2248 10.9876 17.7748 11.8813 16.8811L16.3813 12.3811C16.722 12.0404 17.2782 12.0404 17.6188 12.3811C17.9595 12.7217 17.9595 13.2779 17.6188 13.6186L13.1188 18.1186C12.9095 18.3279 12.9095 18.6717 13.1188 18.8811C13.3282 19.0904 13.672 19.0904 13.8813 18.8811L19.3813 13.3811C20.1438 12.6186 20.1438 11.3811 19.3813 10.6186Z" fill="#737373"/>
</g>
</g>
<defs>
<clipPath id="clip0_222_3142">
<rect width="14" height="16" fill="white" transform="translate(8 8)"/>
</clipPath>
<clipPath id="clip1_222_3142">
<path d="M8 8H22V24H8V8Z" fill="white"/>
</clipPath>
</defs>
</svg>
