<svg width="838" height="24" viewBox="0 0 838 24" fill="none" xmlns="http://www.w3.org/2000/svg">
<path d="M838 24H0V0H838V24Z" stroke="#E5E7EB"/>
<path d="M779 10C780.105 10 781 10.8954 781 12C781 13.1046 780.105 14 779 14H2C0.89543 14 0 13.1046 0 12C0 10.8954 0.895431 10 2 10H779Z" fill="#E5E5E5"/>
<path d="M779 10C780.105 10 781 10.8954 781 12C781 13.1046 780.105 14 779 14H2C0.89543 14 0 13.1046 0 12C0 10.8954 0.895431 10 2 10H779Z" stroke="#E5E7EB"/>
<path d="M193.25 10C194.355 10 195.25 10.8954 195.25 12C195.25 13.1046 194.355 14 193.25 14H2C0.895432 14 0 13.1046 0 12C0 10.8954 0.895431 10 2 10H193.25Z" fill="#7682E8"/>
<path d="M193.25 10C194.355 10 195.25 10.8954 195.25 12C195.25 13.1046 194.355 14 193.25 14H2C0.895432 14 0 13.1046 0 12C0 10.8954 0.895431 10 2 10H193.25Z" stroke="#E5E7EB"/>
</svg>
