<svg width="22" height="30" viewBox="0 0 22 30" fill="none" xmlns="http://www.w3.org/2000/svg">
<path d="M22 30H0V0H22V30Z" stroke="#E5E7EB"/>
<g clip-path="url(#clip0_224_3609)">
<path d="M18 23H4V7H18V23Z" stroke="#E5E7EB"/>
<path d="M4.25 15C4.25 14.5359 4.43437 14.0908 4.76256 13.7626C5.09075 13.4344 5.53587 13.25 6 13.25C6.46413 13.25 6.90925 13.4344 7.23744 13.7626C7.56563 14.0908 7.75 14.5359 7.75 15C7.75 15.4641 7.56563 15.9092 7.23744 16.2374C6.90925 16.5656 6.46413 16.75 6 16.75C5.53587 16.75 5.09075 16.5656 4.76256 16.2374C4.43437 15.9092 4.25 15.4641 4.25 15ZM9.25 15C9.25 14.5359 9.43437 14.0908 9.76256 13.7626C10.0908 13.4344 10.5359 13.25 11 13.25C11.4641 13.25 11.9092 13.4344 12.2374 13.7626C12.5656 14.0908 12.75 14.5359 12.75 15C12.75 15.4641 12.5656 15.9092 12.2374 16.2374C11.9092 16.5656 11.4641 16.75 11 16.75C10.5359 16.75 10.0908 16.5656 9.76256 16.2374C9.43437 15.9092 9.25 15.4641 9.25 15ZM16 13.25C16.4641 13.25 16.9092 13.4344 17.2374 13.7626C17.5656 14.0908 17.75 14.5359 17.75 15C17.75 15.4641 17.5656 15.9092 17.2374 16.2374C16.9092 16.5656 16.4641 16.75 16 16.75C15.5359 16.75 15.0908 16.5656 14.7626 16.2374C14.4344 15.9092 14.25 15.4641 14.25 15C14.25 14.5359 14.4344 14.0908 14.7626 13.7626C15.0908 13.4344 15.5359 13.25 16 13.25Z" fill="#A3A3A3"/>
</g>
<defs>
<clipPath id="clip0_224_3609">
<rect width="14" height="16" fill="white" transform="translate(4 7)"/>
</clipPath>
</defs>
</svg>
