<svg width="18" height="20" viewBox="0 0 18 20" fill="none" xmlns="http://www.w3.org/2000/svg">
<path d="M18 20H0V0H18V20Z" stroke="#E5E7EB"/>
<g clip-path="url(#clip0_222_2927)">
<path d="M0 6C0 4.89688 0.896875 4 2 4H10C11.1031 4 12 4.89688 12 6V14C12 15.1031 11.1031 16 10 16H2C0.896875 16 0 15.1031 0 14V6ZM17.4719 5.11875C17.7969 5.29375 18 5.63125 18 6V14C18 14.3687 17.7969 14.7063 17.4719 14.8813C17.1469 15.0563 16.7531 15.0375 16.4438 14.8313L13.4438 12.8313L13 12.5344V12V8V7.46562L13.4438 7.16875L16.4438 5.16875C16.75 4.96563 17.1437 4.94375 17.4719 5.11875Z" fill="white"/>
</g>
<defs>
<clipPath id="clip0_222_2927">
<path d="M0 2H18V18H0V2Z" fill="white"/>
</clipPath>
</defs>
</svg>
