<svg width="18" height="17" viewBox="0 0 18 17" fill="none" xmlns="http://www.w3.org/2000/svg">
<path d="M17.5 17H0V0H17.5V17Z" stroke="#E5E7EB"/>
<g clip-path="url(#clip0_224_3929)">
<path d="M5.68731 11.375C8.82911 11.375 11.3748 9.22031 11.3748 6.5625C11.3748 3.90469 8.82911 1.75 5.68731 1.75C2.54551 1.75 -0.000189019 3.90469 -0.000189019 6.5625C-0.000189019 7.61797 0.401764 8.59414 1.08262 9.38984C0.98692 9.64687 0.844733 9.87383 0.694342 10.0652C0.563092 10.2348 0.429108 10.366 0.33067 10.4563C0.281452 10.5 0.240436 10.5355 0.213092 10.5574C0.19942 10.5684 0.188483 10.5766 0.183014 10.5793L0.177545 10.5848C0.0271547 10.6969 -0.0384703 10.8938 0.021686 11.0715C0.0818422 11.2492 0.248639 11.375 0.437311 11.375C1.0334 11.375 1.63497 11.2219 2.13536 11.0332C2.38692 10.9375 2.62208 10.8309 2.82715 10.7215C3.66661 11.1371 4.64278 11.375 5.68731 11.375ZM12.2498 6.5625C12.2498 9.6332 9.54004 11.9465 6.32989 12.2227C6.99434 14.257 9.19825 15.75 11.8123 15.75C12.8568 15.75 13.833 15.5121 14.6752 15.0965C14.8803 15.2059 15.1127 15.3125 15.3643 15.4082C15.8647 15.5969 16.4662 15.75 17.0623 15.75C17.251 15.75 17.4205 15.627 17.4779 15.4465C17.5354 15.266 17.4725 15.0691 17.3193 14.957L17.3139 14.9516C17.3084 14.9461 17.2975 14.9406 17.2838 14.9297C17.2564 14.9078 17.2154 14.875 17.1662 14.8285C17.0678 14.7383 16.9338 14.607 16.8025 14.4375C16.6522 14.2461 16.51 14.0164 16.4143 13.7621C17.0951 12.9691 17.4971 11.993 17.4971 10.9348C17.4971 8.39727 15.1756 6.31641 12.2307 6.13594C12.2416 6.27539 12.2471 6.41758 12.2471 6.55977L12.2498 6.5625Z" fill="white"/>
</g>
<defs>
<clipPath id="clip0_224_3929">
<path d="M0 1.75H17.5V15.75H0V1.75Z" fill="white"/>
</clipPath>
</defs>
</svg>
