<svg width="16" height="17" viewBox="0 0 16 17" fill="none" xmlns="http://www.w3.org/2000/svg">
<path d="M15.75 17H0V0H15.75V17Z" stroke="#7682E8"/>
<g clip-path="url(#clip0_222_3075)">
<path d="M0 5.25C0 4.28477 0.784766 3.5 1.75 3.5H8.75C9.71523 3.5 10.5 4.28477 10.5 5.25V12.25C10.5 13.2152 9.71523 14 8.75 14H1.75C0.784766 14 0 13.2152 0 12.25V5.25ZM15.2879 4.47891C15.5723 4.63203 15.75 4.92734 15.75 5.25V12.25C15.75 12.5727 15.5723 12.868 15.2879 13.0211C15.0035 13.1742 14.659 13.1578 14.3883 12.9773L11.7633 11.2273L11.375 10.9676V10.5V7V6.53242L11.7633 6.27266L14.3883 4.52266C14.6562 4.34492 15.0008 4.32578 15.2879 4.47891Z" fill="#7682E8"/>
</g>
<defs>
<clipPath id="clip0_222_3075">
<path d="M0 1.75H15.75V15.75H0V1.75Z" fill="white"/>
</clipPath>
</defs>
</svg>
