<svg width="32" height="32" viewBox="0 0 32 32" fill="none" xmlns="http://www.w3.org/2000/svg">
<mask id="mask0_222_3302" style="mask-type:luminance" maskUnits="userSpaceOnUse" x="0" y="0" width="32" height="32">
<path d="M32 0H0V32H32V0Z" fill="white"/>
</mask>
<g mask="url(#mask0_222_3302)">
<path d="M23.8164 28.576C20.1761 39.4751 10.466 42.8365 5.33203 29.3026C4.62377 27.442 6.46964 26.7521 7.76139 25.9301C8.64579 25.3687 9.11185 24.8843 9.0568 24.3815C8.79992 22.0182 7.70267 15.4347 7.70267 15.4347L7.59258 15.2219C7.59258 15.2219 7.61827 15.1631 7.51185 15.2659C7.40175 15.376 7.14854 16.5209 6.15405 16.5209C5.25497 16.5209 4.34854 16.1209 3.91552 13.354C3.75038 12.3521 3.83845 9.72462 4.95405 9.24755C5.41276 9.05306 5.83478 8.98333 6.24579 9.21819C6.66047 9.45306 5.76873 8.41086 10.3559 4.59434C13.3357 2.10627 18.044 1.74297 19.9449 2.16498C21.8458 2.587 23.743 3.51544 24.5834 5.48608C25.6036 7.87141 23.6329 9.68058 24.0696 15.1191C23.9889 17.0861 24.099 21.4017 18.6898 22.8476C17.6623 23.1228 17.9816 24.6237 19.5229 24.9907C21.9816 25.7613 23.8164 27.6439 23.8164 28.5833" fill="white"/>
<path fill-rule="evenodd" clip-rule="evenodd" d="M23.8165 11.6403L23.8202 11.5889C23.9706 10.2531 24.1211 8.95774 24.8147 7.79443C25.0532 7.9559 25.0238 8.16141 24.9504 8.35223C24.2202 10.2311 24.2899 12.1834 24.3559 14.1357L24.3706 14.6495C24.4477 17.0862 23.8385 19.3027 22.2165 21.1632C21.6514 21.8091 20.9027 22.2568 20.1431 22.6421C19.3578 23.0458 19.1926 23.3798 19.4385 24.2421L19.4679 24.3376C19.5192 24.4807 19.5706 24.6275 19.4312 24.7706C19.266 24.9394 19.0825 24.8917 18.888 24.8366L18.866 24.833C17.0465 24.3235 15.3404 23.4729 13.8385 22.3265C13.6183 22.1651 13.4422 21.9486 13.2697 21.7357L13.2587 21.721C13.1669 21.6109 13.1486 21.4348 13.277 21.3394C13.3981 21.2476 13.4899 21.321 13.5963 21.4054L13.633 21.4385C14.4343 22.0887 15.4069 22.4927 16.433 22.6018C16.9247 22.6531 17.4091 22.6348 17.9009 22.6165C18.1725 22.6054 18.444 22.5944 18.7192 22.5981C19.0936 22.5981 19.4055 22.4256 19.6991 22.2605L19.8018 22.2018C20.822 21.633 21.7945 20.9981 22.4514 19.9742C23.0422 19.0568 23.4018 18.0587 23.611 17.0054C23.8752 15.6807 23.8532 14.3376 23.8312 12.9761C23.8202 12.5357 23.8128 12.088 23.8128 11.6403H23.8165ZM5.34309 8.87333C6.14676 8.81095 6.5908 9.28434 6.96878 9.83847C7.41676 10.5155 7.69842 11.2888 7.7908 12.0954C7.80915 12.2311 7.8275 12.3742 7.74676 12.51C7.58163 12.532 7.56695 12.3999 7.56328 12.3045C7.54493 11.5449 7.20731 10.8843 6.8697 10.2458C6.6275 9.78709 6.2752 9.34306 5.71741 9.23297C5.08621 9.10453 4.5064 9.67333 4.22016 10.4146C3.68805 11.7944 3.77979 13.1522 4.27153 14.488C4.48438 15.0715 4.75227 15.666 5.29172 16.0733C5.83484 16.488 6.49172 16.4146 6.89172 15.8642L6.96511 15.7724C7.03851 15.677 7.1119 15.5853 7.1486 15.4788C7.22566 15.266 7.34676 15.0678 7.56328 15.0972C7.81282 15.1339 7.85686 15.4018 7.88254 15.6109C8.1102 17.5334 8.37937 19.4506 8.68988 21.3614L8.9064 22.7853C9.00181 23.4128 9.1119 24.3155 9.03851 24.6972C9.03377 24.7239 9.0301 24.7509 9.0275 24.7779C9.01282 24.8807 9.00548 24.9614 8.87337 24.9798C8.69355 25.0091 8.61649 24.9064 8.5908 24.7449C8.5064 24.121 8.48071 23.8788 8.44401 22.9247C8.41098 21.9999 8.23851 21.0898 8.06236 20.1761L7.87887 19.1853C7.68805 18.055 7.50089 16.91 7.48254 15.6256L7.40915 15.7357C7.13025 16.1504 6.9064 16.488 6.51007 16.6165C6.21586 16.7292 5.89345 16.7455 5.58937 16.663C5.2853 16.5806 5.01529 16.4036 4.81832 16.1577C4.30121 15.5737 3.93796 14.8699 3.76144 14.11C3.45319 12.8623 3.39814 11.6476 3.79447 10.4183C3.9853 9.82746 4.66419 8.77792 5.34309 8.877V8.87333ZM6.61282 13.5522C6.77429 13.6697 6.92108 13.7724 7.05319 13.3541C7.01282 11.8054 6.51374 10.8146 5.73942 10.7743C6.15043 11.31 6.54676 11.8311 6.58346 12.5541C6.43076 12.4761 6.29679 12.3659 6.1908 12.2311C6.11741 12.1504 6.04401 12.0697 5.95227 12.0109L5.84218 11.9229C5.66603 11.7908 5.48621 11.6513 5.18897 11.7577C5.32842 11.9706 5.51924 12.1247 5.71374 12.2715C5.93392 12.444 6.1541 12.6128 6.28621 12.877C5.89722 13.1596 5.72842 13.5265 5.93025 13.9742C6.1064 14.3596 6.36695 14.6788 6.88071 14.7009C6.85869 14.4697 6.70823 14.3009 6.55777 14.1357C6.37429 13.9376 6.20181 13.7467 6.28254 13.4531C6.39997 13.3981 6.51007 13.4788 6.61282 13.5522Z" fill="black"/>
<path d="M38.767 48.2717L-9.0752 48.1506C-9.0752 48.1506 -7.85318 40.4552 -5.54492 36.0809C-2.86602 30.991 0.943152 26.8882 8.78168 24.4515C9.46792 24.2387 15.112 26.9726 15.112 26.9726L19.101 24.4038C19.101 24.4038 25.523 26.1726 27.9523 27.5414C31.0422 29.2772 34.5322 34.4038 36.1395 38.4038C37.8496 42.6533 38.767 48.2754 38.767 48.2754V48.2717Z" fill="white"/>
<path d="M23.5046 48.2717C23.0275 48.2093 23.0092 47.8057 22.8807 47.5121C22.7192 47.1304 22.5211 47.024 22.1945 47.3286C21.9559 47.5451 21.8202 47.4791 21.6587 47.2075C21.4642 46.8772 21.1449 46.6093 21.5229 46.1873C21.666 46.0332 21.5229 45.857 21.3248 45.8093C21.1229 45.758 21.0532 45.6112 21.0275 45.4387C20.9908 45.2185 21.1963 45.2185 21.3211 45.1378C21.6514 44.9139 21.9156 44.6277 22.0037 44.2203C22.033 44.0882 22.0697 43.9378 22.2092 43.9561C22.6936 44.0222 23.0018 43.6662 23.3981 43.5047C23.5816 43.5671 23.6293 43.7396 23.6917 43.8937C23.7871 44.1213 23.8862 44.3341 24.2018 44.246C24.2286 44.2382 24.2566 44.2359 24.2843 44.2391C24.3119 44.2423 24.3387 44.2509 24.363 44.2646C24.3872 44.2783 24.4085 44.2967 24.4256 44.3187C24.4427 44.3407 24.4552 44.3659 24.4624 44.3928C24.5284 44.5983 24.6092 44.7598 24.855 44.7965C24.9541 44.8148 25.0055 44.9213 24.9761 45.0167C24.9137 45.2295 25.0092 45.3396 25.1853 45.4203C25.2074 45.4294 25.2272 45.4432 25.2433 45.4609C25.2594 45.4785 25.2714 45.4994 25.2784 45.5223C25.2854 45.5451 25.2873 45.5692 25.2839 45.5928C25.2805 45.6164 25.2719 45.639 25.2587 45.6589C24.9468 46.0992 25.0642 46.5396 25.2697 47.035C24.6532 47.1965 24.2312 47.5414 24.2055 48.2424C23.9926 48.2717 23.7688 48.2717 23.5082 48.2717H23.5046ZM11.7431 47.9451C11.3431 48.1653 11.0899 47.7983 10.7523 47.7543C10.3706 47.7029 10.2752 47.8093 10.2642 48.1396C10.2569 48.3231 10.2862 48.5433 10.022 48.5726C9.53392 48.6313 9.01649 48.4369 8.99815 48.169C8.97613 47.813 8.86237 47.6992 8.53576 47.8901C8.45522 47.9402 8.36063 47.9631 8.26607 47.9551C8.17151 47.9472 8.08204 47.9089 8.01099 47.846C7.85319 47.7139 8.00365 47.5598 8.04035 47.4167C8.13209 47.013 8.03668 46.6313 7.83851 46.2791C7.77246 46.169 7.66237 46.0295 7.7798 45.9635C8.20182 45.7249 8.07338 45.3323 8.09539 44.9836C8.11741 44.646 8.30824 44.7011 8.51741 44.7708C8.79631 44.8625 9.01649 44.9543 9.3064 44.668C9.51191 44.4662 9.96695 44.4992 10.2679 44.602C10.4881 44.6827 10.6715 44.7855 10.9211 44.657C11.0825 45.1781 11.3248 45.5378 11.8752 45.6075C12.0954 45.6332 12.077 45.8277 11.9706 45.9671C11.677 46.3341 11.9156 46.7378 11.8825 47.1194C11.8679 47.2809 12.0917 47.2662 12.2422 47.3323C12.0891 47.546 11.9236 47.7506 11.7468 47.9451H11.7431ZM-4.4147 48.5873C-4.84773 48.4038 -4.7303 47.9304 -4.99452 47.6479C-5.20369 47.424 -5.31378 47.3983 -5.51562 47.5525C-5.82754 47.791 -6.0514 47.868 -6.2569 47.3983C-6.40369 47.068 -6.74497 46.8332 -6.38534 46.4295C-6.28259 46.3121 -6.45874 46.1873 -6.59085 46.1213C-6.78534 46.0222 -6.91378 45.8791 -6.88809 45.5708C-6.33763 45.6589 -6.26424 45.068 -5.88626 44.8625C-5.77617 44.8038 -5.79085 44.6791 -5.79452 44.569C-5.80186 44.3855 -5.66241 44.2644 -5.53763 44.3268C-5.1303 44.5213 -4.95782 44.213 -4.7303 44.0038C-4.378 43.6736 -4.28259 43.6992 -4.17984 44.169C-4.12479 44.4185 -4.06608 44.6313 -3.7358 44.5726C-3.66608 44.558 -3.55965 44.5763 -3.51929 44.624C-3.21103 45.002 -2.82571 45.3139 -2.58718 45.7469C-2.54314 45.8203 -2.51378 45.9121 -2.56883 45.9671C-3.00919 46.4075 -2.86241 46.8479 -2.53213 47.3249C-3.17433 47.5121 -3.79819 47.6919 -3.71745 48.5543C-3.9303 48.5836 -4.15048 48.5836 -4.4147 48.5836V48.5873ZM36.3743 48.2717C35.8128 48.2093 35.9303 47.6736 35.7211 47.3836C35.4715 47.0387 35.3174 47.0607 35.0642 47.2736C34.8 47.5011 34.5945 47.6222 34.4991 47.1378C34.477 47.0277 34.3596 46.9323 34.2789 46.8332C34.1431 46.6534 34.0917 46.4992 34.3009 46.3084C34.5468 46.0882 34.477 45.8864 34.1651 45.7947C33.9449 45.7323 33.7908 45.6038 33.7981 45.3763C33.8018 45.1561 34.0183 45.2075 34.1578 45.1781C34.2936 45.1525 34.4073 45.068 34.422 44.9433C34.4587 44.6791 34.6422 44.5873 34.8807 44.5323C34.8037 44.1286 34.866 43.8864 35.3504 44.0479C35.6624 44.1543 35.7468 43.802 35.9376 43.6736C36.3082 43.4314 36.4257 43.4314 36.5321 43.868C36.6018 44.1543 36.6826 44.3378 37.0275 44.2607C37.189 44.224 37.2293 44.3708 37.266 44.4919C37.3027 44.6167 37.3468 44.7414 37.4972 44.7561C37.9743 44.7928 37.8385 45.0277 37.6624 45.2589C37.7615 45.4607 38 45.3653 38.1284 45.5451C37.7394 45.9928 37.7578 46.4809 38.0917 46.9396C38.0367 47.1304 37.8972 47.1451 37.7798 47.1378C37.2293 47.1158 37.2367 47.7323 36.8734 47.9304C36.8 47.9671 36.9211 48.1249 36.9798 48.246C36.778 48.268 36.5761 48.2791 36.3743 48.2717ZM24.6348 28.0479C24.3119 27.8277 24.0293 27.6258 23.9963 27.2185C23.978 27.013 23.8385 26.8589 23.6147 26.7928C23.9229 26.4112 23.9449 25.5708 23.9449 25.5708C23.9449 25.5708 23.8348 25.8864 26.6385 26.7158C26.3339 27.4754 26.6605 27.835 25.9413 28.3414C25.6037 28.0002 25.0972 28.213 24.6348 28.0479ZM23.7835 35.3947C23.1082 35.5121 22.9761 34.9836 22.822 34.591C22.6715 34.2093 22.5101 34.3011 22.2642 34.4332C22.1064 34.5139 21.9926 34.8075 21.7541 34.5763C21.4569 34.2827 21.2917 33.7066 21.4752 33.5047C21.6954 33.2625 21.633 33.1194 21.3688 33.0093C21.167 32.9213 21.0165 32.7891 21.0165 32.5616C21.0128 32.2901 21.2734 32.3451 21.4202 32.257C21.6991 32.0882 21.7725 31.7616 21.9559 31.5194C21.9743 31.4974 21.967 31.457 21.9816 31.4277C22.0477 31.2699 23.3871 30.6057 23.4495 30.7121C23.6819 31.1037 24.0238 31.4188 24.433 31.6185C24.5871 31.6956 24.7523 31.9671 24.9725 32.0332C25.0752 32.246 24.844 32.3341 24.855 32.4736C24.9651 32.6203 25.178 32.558 25.2734 32.7488C25.0092 33.1158 25.0532 33.5194 25.222 33.9231C25.3101 34.1213 25.277 34.2607 25.0679 34.3268C24.842 34.3887 24.636 34.5081 24.47 34.6734C24.3041 34.8387 24.1839 35.0442 24.1211 35.2699C24.0734 35.4203 23.9523 35.435 23.7835 35.3947ZM12.0624 32.0222C12.1468 32.2827 12.077 32.5836 12.4587 32.6827C12.1578 33.1047 12.1761 33.5121 12.3963 33.9268C12.4954 34.1176 12.444 34.2497 12.2165 34.3084C11.6881 34.4405 11.2624 34.668 11.211 35.3029C11.2 35.4607 11.0348 35.4534 10.9284 35.3323C10.8624 35.2552 10.8991 35.1121 10.7596 35.0534C10.6862 35.1855 10.7156 35.4203 10.4697 35.391C10.2495 35.3653 10.2825 35.1965 10.2495 35.0387C10.1981 34.7451 9.91925 34.5616 9.87888 34.2644C9.59998 34.2387 9.47521 34.4552 9.29173 34.558C9.09356 34.6754 8.95778 34.6901 8.8587 34.4369C8.71558 34.0809 8.27154 33.7836 8.71191 33.3286C8.84769 33.1891 8.63117 33.0607 8.49172 32.9947C8.29356 32.8956 8.15044 32.7488 8.15044 32.5286C8.15044 32.2864 8.44402 32.3671 8.52475 32.2607C8.75594 31.9671 9.1853 31.8607 9.25136 31.391C9.31007 30.9873 9.62567 31.3286 9.83851 31.2919C9.93026 31.1708 10.011 31.0167 10.1321 30.9103C10.5137 30.5763 10.6679 30.6167 10.8734 31.0791C10.9027 31.1525 10.9394 31.2772 10.9761 31.2809C11.4862 31.2992 11.644 31.824 12.0624 32.0222ZM-4.20919 33.6185C-4.11011 33.424 -3.99635 33.2662 -3.95231 33.0901C-3.79085 32.3561 -3.47525 31.7213 -2.77066 31.391C-2.4514 31.2442 -2.51745 30.8222 -2.21286 30.7047C-2.01103 30.7928 -2.04773 30.9763 -1.99268 31.1121C-1.95598 31.2148 -1.93396 31.402 -1.84589 31.38C-1.31011 31.2552 -1.23672 31.846 -0.869744 31.9928C-0.576167 32.1139 -0.671579 32.569 -0.319286 32.7194C-0.825708 33.1818 -0.711946 33.6479 -0.341304 34.1653C-0.994515 34.3781 -1.62204 34.6057 -1.66974 35.3947C-1.90094 35.38 -1.88259 35.1378 -2.16516 35.0644C-2.23855 35.0424 -2.23855 35.3286 -2.45874 35.3139C-2.59085 34.9506 -2.76332 34.6057 -2.9725 34.2864C-3.31745 34.2717 -3.51562 34.591 -3.85323 34.6424C-4.00002 34.3231 -4.2936 34.0552 -4.20919 33.6185ZM29.5339 31.7396C29.4899 31.5011 29.3101 31.4644 29.1523 31.3983C28.9835 31.3249 28.9394 31.1781 28.9321 31.0203C28.9211 30.8552 29.0679 30.8295 29.189 30.8002C29.5926 30.6864 29.7027 30.2791 29.8936 29.9928C30.1321 29.6332 30.7633 29.413 31.0348 29.7469C31.7725 30.6497 32.5394 31.5341 33.1449 32.5359C33.1596 32.5616 33.1523 32.5983 33.1633 32.6937C32.466 32.7635 32.1248 33.2515 31.9303 33.9414C31.6917 33.6589 31.4715 33.5304 31.1596 33.769C31.1082 33.3983 30.8183 33.2185 30.7156 32.9286C30.6165 32.6534 30.4514 32.7194 30.2752 32.8185C29.6954 33.1488 29.6881 33.1488 29.3798 32.5359C29.3174 32.4112 29.2624 32.2864 29.2147 32.18C29.266 31.9745 29.5266 31.9781 29.5339 31.7396ZM3.66604 38.2827C3.76879 38.2644 3.85686 38.2607 3.90824 38.213C4.33393 37.8497 4.74126 37.9781 4.87704 38.5359C4.91374 38.6901 4.9798 38.7561 5.12659 38.7561C5.27338 38.7561 5.40549 38.7928 5.48989 38.98C5.15961 39.2772 5.41649 39.7249 5.26237 40.0736C5.11191 40.4148 4.8587 40.7121 4.61283 41.0827C4.29723 40.6864 3.84585 40.8369 3.45686 40.7451C3.01649 40.6424 2.7486 40.4405 2.6275 40.0185C2.61282 39.9745 2.61282 39.9158 2.58347 39.8864C2.13943 39.4937 2.36328 39.068 2.49172 38.6314C2.67521 38.0075 2.95044 37.8827 3.5009 38.224C3.55227 38.2497 3.61099 38.268 3.66604 38.2827ZM30.9468 39.9047C30.9137 40.4112 30.367 40.5763 30.3596 41.1671C29.9706 40.7598 29.5743 40.7928 29.1963 40.7708C28.7266 40.7451 28.4477 40.5066 28.3596 40.0625C28.3046 39.7873 28.1321 39.6332 27.8899 39.4974C28.0293 39.1488 28.1248 38.7855 28.1725 38.4148C28.2055 38.1763 28.8257 37.9231 28.9908 38.0992C29.3688 38.5103 29.6147 38.4075 29.8165 37.9158C30.1394 38.0956 30.5027 38.1359 30.6092 38.5763C30.6679 38.8112 31.1156 38.6424 31.189 39.0057C30.7266 39.1781 31.0238 39.5708 30.9468 39.9047ZM16.2128 38.2203C16.6459 38.5543 16.8 38.1249 17.0569 37.9378C17.3137 38.1506 17.7394 38.1286 17.7908 38.6167C17.8202 38.8479 18.2715 38.6387 18.3486 38.9947C18.1064 39.1561 18.0624 39.3836 18.1284 39.7102C18.2422 40.2937 17.6367 40.5543 17.4899 41.1121C17.0202 40.635 16.444 40.9029 15.9596 40.6644C15.4385 40.4075 15.6073 39.6736 14.9945 39.5158C15.2367 39.1341 15.3248 38.7561 15.3688 38.3561C15.4055 38.0625 15.9009 37.9855 16.2128 38.2203ZM5.00916 27.5708C4.85503 27.7836 4.81466 28.0295 4.59448 28.224C4.27154 27.7947 3.77613 28.0405 3.36512 27.9011C3.1486 27.8314 2.96512 27.7176 2.79264 27.6038C2.5431 27.4387 2.57613 26.9359 2.84035 26.7598C3.36512 26.4112 3.83117 25.9745 4.5064 25.8864C4.90273 25.835 5.19631 26.0332 5.66237 26.0369C5.33209 26.3928 5.35044 26.7084 5.33209 27.0093C5.31741 27.2442 5.24402 27.4314 5.00916 27.5708Z" fill="black"/>
<path fill-rule="evenodd" clip-rule="evenodd" d="M37.8972 45.4387C38.0943 46.3862 38.306 47.3306 38.532 48.2717C38.7045 48.2717 38.833 48.2717 38.9504 48.2387C38.7598 47.5061 38.6164 46.7621 38.521 46.0111C38.4476 45.5341 38.3742 45.0533 38.2788 44.5799C38.0513 43.4643 37.7944 42.3598 37.4715 41.2772C37.1045 40.0442 36.6825 38.8221 36.1761 37.6331C35.6749 36.3964 35.0837 35.1981 34.4073 34.0478C33.7117 32.8711 32.9213 31.753 32.044 30.7047V30.6974C31.2917 29.8313 30.5467 28.9726 29.6036 28.2827C29.1449 27.9487 28.6531 27.6698 28.1651 27.3946C27.8348 27.2075 27.5009 27.0203 27.1779 26.8148C26.1724 26.1689 25.0568 25.824 23.9412 25.4864C23.4128 25.3249 22.8843 25.1598 22.3632 24.9653C21.9857 24.8348 21.5977 24.7366 21.2036 24.6717C20.5284 24.5432 19.8458 24.4148 19.2513 23.9598C19.1779 24.268 18.9687 24.3157 18.7559 24.3634C18.6421 24.3891 18.5284 24.4148 18.433 24.4809C17.7755 24.9332 17.11 25.3736 16.4366 25.802C16.0635 26.0446 15.6916 26.2893 15.321 26.5359C15.2403 26.5873 15.1706 26.6387 15.0752 26.5836C14.6972 26.3634 14.2862 26.213 13.8752 26.0625C13.6586 25.9854 13.4458 25.9084 13.233 25.8166L12.6091 25.5634C12.1137 25.3653 11.6146 25.1598 11.1412 24.9212C10.8843 24.7928 10.6201 24.701 10.3522 24.6166C9.89718 24.4698 9.44214 24.3194 9.0715 23.9744C8.94305 23.8497 8.71553 23.8533 8.57608 24.0478C8.36691 24.3524 8.0403 24.4588 7.71003 24.5689L7.13021 24.7524C6.60879 24.903 6.09556 25.0806 5.5926 25.2845C4.57254 25.7276 3.56768 26.205 2.57975 26.7157C1.40344 27.3139 0.312421 28.0668 -0.664286 28.9543C-2.1084 30.2796 -3.36963 31.7914 -4.41474 33.4497C-5.15412 34.6173 -5.80665 35.8377 -6.36704 37.101C-6.80834 38.0939 -7.20026 39.108 -7.54135 40.1396C-7.82464 40.9322 -8.06958 41.738 -8.2753 42.5542C-8.34135 42.8185 -8.40374 43.0827 -8.47713 43.3396C-8.58722 43.7763 -8.69731 44.2093 -8.78539 44.646C-9.01658 45.8533 -9.21108 47.068 -9.37988 48.279C-9.14869 48.279 -8.95419 48.279 -8.75236 48.2387C-8.71566 47.5744 -8.59089 46.9432 -8.46979 46.3231L-8.37805 45.846C-8.15795 44.5281 -7.84649 43.2271 -7.44594 41.9524L-7.29915 41.512C-6.82942 40.1102 -6.36704 38.7157 -5.74319 37.3726C-4.90649 35.5634 -3.94502 33.8313 -2.74502 32.2276C-1.88831 31.0675 -0.907579 30.0044 0.17975 29.057C1.19626 28.1799 2.34489 27.5267 3.54856 26.9212C3.97058 26.7084 4.4036 26.5176 4.83296 26.3231C5.39783 26.082 5.95243 25.8175 6.49535 25.5304C6.84764 25.3359 7.06049 25.3469 7.21828 25.7983C7.55462 26.7198 8.05712 27.5718 8.70085 28.312C10.0158 29.9145 11.8366 31.0222 13.8642 31.4533C15.9192 31.8937 17.7284 31.4423 19.222 29.9708C20.033 29.1781 20.8073 28.3231 21.2366 27.2405C21.4018 26.8185 21.5522 26.3854 21.7027 25.9451L21.9229 25.3212L23.1706 25.7176C23.5632 25.846 23.9596 25.9744 24.3596 26.0955C26.0366 26.6093 27.5376 27.5047 28.9687 28.4955C30.5577 29.5965 31.7357 31.1157 32.8293 32.6864C33.6071 33.8279 34.3001 35.025 34.9027 36.268C35.5131 37.4849 36.0343 38.7445 36.4623 40.0368C36.8917 41.3322 37.2807 42.6423 37.5816 43.9854L37.8972 45.4387ZM13.1009 26.3928C13.4054 26.5359 13.7137 26.679 14.055 26.7231L14.2201 26.8038C14.4132 26.9155 14.6243 26.9925 14.844 27.0313C14.7339 27.1891 14.6238 27.3359 14.5137 27.479C14.2788 27.7763 14.0586 28.0662 13.9265 28.4111L13.8421 28.6276C13.7614 28.8295 13.6807 29.0313 13.6513 29.2515C13.6109 29.5854 13.4348 29.6698 13.0935 29.6038C12.5343 29.4661 12.0055 29.2259 11.5339 28.8955C11.1632 28.6643 10.7999 28.4221 10.433 28.1836C9.94489 27.8607 9.45315 27.5377 8.94672 27.2368C8.30819 26.8515 8.02195 26.2423 7.75773 25.6111C7.64397 25.3322 7.8825 25.1487 8.08801 25.0093C8.45498 24.7524 8.87333 24.7451 9.29535 24.8552C10.0073 25.0387 10.6715 25.3396 11.3394 25.6405C11.7651 25.8313 12.1871 26.0221 12.6238 26.1836C12.7853 26.2423 12.9431 26.3157 13.1009 26.3891V26.3928ZM17.8935 29.7836C17.7761 29.9671 17.6513 30.1506 17.3908 30.0772C17.1742 30.0258 17.1229 29.8387 17.0715 29.6552L17.0458 29.5671C16.7654 28.6408 16.21 27.8217 15.4531 27.2185C14.6238 27.846 14.3229 28.7377 14.0953 29.6698C14.0953 29.6955 14.0843 29.7212 14.0807 29.7469C14.0293 29.9818 13.9779 30.213 13.6403 30.1873C12.8293 30.1139 12.0476 29.9377 11.3651 29.4313C10.8587 29.0533 10.3412 28.69 9.82379 28.3304C9.59706 28.172 9.37076 28.013 9.14489 27.8533C9.21828 28.1469 9.37975 28.4075 9.6036 28.613C10.4004 29.3543 11.3095 29.9649 12.2972 30.4221C13.5638 31.0079 14.9833 31.1775 16.3522 30.9065C17.7357 30.6643 18.8146 29.8607 19.6733 28.7671L19.8128 28.5946C20.055 28.3047 20.3082 28.0001 20.3632 27.512C20.2091 27.6662 20.066 27.824 19.9229 27.9781C19.5486 28.3891 19.2036 28.7671 18.7375 29.013C18.4139 29.1817 18.1366 29.4275 17.9302 29.7286L17.8935 29.7836ZM20.9687 26.3524C20.9188 26.4853 20.8275 26.5985 20.7082 26.6754C19.7174 27.6111 18.6531 28.4735 17.5339 29.2552C17.1999 28.3168 16.6101 27.4906 15.8311 26.8698L16.6238 26.3487C17.4128 25.835 18.1908 25.3286 18.9614 24.8148C19.1082 24.7157 19.1889 24.7781 19.2843 24.8478L19.3247 24.8772C19.6122 25.0978 19.9642 25.2177 20.3265 25.2185C21.0898 25.1818 21.3064 25.6148 20.9651 26.3561L20.9687 26.3524Z" fill="black"/>
<path d="M-1.48633 48.2716C-1.44229 47.4386 -1.36156 46.6019 -1.27348 45.7652C-1.1744 44.8074 -1.07532 43.8496 -0.921191 42.8918C-0.774402 42.0001 -0.601924 41.1156 -0.400089 40.2386C-0.0698141 38.7964 0.410919 37.3982 1.24028 36.1468C1.35037 35.978 1.46046 35.8166 1.68064 35.967C1.87514 36.0991 1.76872 36.2386 1.70266 36.4111C1.35404 37.2918 1.02743 38.1725 0.700828 39.0606C0.24854 40.369 -0.0867202 41.7149 -0.301007 43.0826C-0.517521 44.323 -0.601924 45.5854 -0.741374 46.8367C-0.78908 47.2881 -0.814768 47.7395 -0.858805 48.2312C-1.06064 48.2716 -1.25147 48.2716 -1.48266 48.2716H-1.48633ZM31.7687 48.2716C31.4311 46.9212 31.3173 45.534 30.9467 44.1982C30.6641 43.167 30.4329 42.1138 30.066 41.1156C29.8054 40.4074 29.5522 39.6845 29.2073 39.0019C28.7412 38.0845 28.3522 37.123 27.9375 36.1762C27.8898 36.0698 27.8274 35.945 27.9816 35.8496C28.1467 35.7542 28.2568 35.8349 28.3485 35.9487C28.488 36.1322 28.6348 36.323 28.7375 36.5322C29.1045 37.2808 29.4568 38.0367 29.8201 38.7927C30.3361 39.9236 30.7559 41.0959 31.0751 42.2973C31.4347 43.4546 31.7009 44.6388 31.8715 45.8386C31.9706 46.6239 32.1357 47.4056 32.1944 48.2349C32.0696 48.2716 31.9375 48.2716 31.7687 48.2716ZM13.0091 28.9175C12.7082 28.9909 12.6017 28.8184 12.5504 28.6092C12.4953 28.3817 12.5797 28.1799 12.7706 28.0404C12.8917 27.9523 13.0274 27.9523 13.1706 28.0184C13.3467 28.1028 13.3394 28.2606 13.343 28.4147C13.354 28.6459 13.2293 28.7927 13.0128 28.9175H13.0091ZM18.3632 27.7615C18.4256 27.978 18.4733 28.1799 18.3008 28.3083C18.1467 28.4184 17.9449 28.5542 17.7577 28.3817C17.5559 28.2056 17.6183 27.967 17.7504 27.7945C17.9045 27.5964 18.1173 27.501 18.3632 27.7578V27.7615Z" fill="black"/>
<path d="M26.0514 7.46423C23.4789 7.97799 19.3725 5.49359 16.2973 3.589C16.1175 3.47891 15.8826 3.47157 15.7945 3.73579C15.3542 5.06056 14.2386 5.76148 13.2147 6.5468C12.8 6.86606 12.3707 7.18166 11.9303 7.46423C10.8404 8.16515 10.4734 9.33212 9.98536 10.422C9.60003 11.2954 9.02022 11.9707 8.10279 12.3083C7.67343 12.4697 7.57802 12.4073 7.58169 11.9376C7.58536 11.1303 7.3615 10.3596 6.89178 9.73579C6.14315 8.74496 5.46792 8.59083 4.41471 9.31744C4.17618 9.48258 4.08077 9.85689 3.90095 10.1578C3.54499 10.033 3.40187 9.68808 3.23306 9.42753C2.32664 8.03671 1.94499 6.47707 1.85324 4.83671C1.81288 4.05505 2.0771 3.32111 2.28627 2.59817C2.60827 1.35819 3.26157 0.229185 4.17618 -0.667881C5.04957 -1.49724 6.09545 -1.93394 7.26242 -2.17981C8.23857 -2.38164 9.20737 -2.41834 10.1872 -2.34128C10.4808 -2.31559 10.6679 -2.46605 10.8294 -2.6532C11.8832 -3.93789 13.2712 -4.90679 14.8404 -5.4532C19.2184 -6.93944 22.5175 -0.968798 22.7743 -0.653202C22.8844 -0.513752 22.9799 -0.425679 23.1633 -0.502743C24.5615 -1.10091 26.0404 -1.18898 27.523 -1.0532C28.723 -0.950449 30.1321 -0.715587 30.5799 0.480743C31.6588 3.36515 28.378 6.99817 26.0514 7.46423Z" fill="black"/>
<path fill-rule="evenodd" clip-rule="evenodd" d="M16.2567 18.5539C17.6145 19.1014 19.1321 19.0988 20.4879 18.5466C20.6384 18.4805 20.8109 18.3998 20.943 18.6016C21.0971 18.8365 20.965 19.0493 20.8182 19.2402C20.7177 19.382 20.6034 19.5135 20.4769 19.6328C20.3375 19.7576 20.1466 19.9044 19.9778 19.7576C19.6549 19.4787 19.4384 19.5521 19.1448 19.82C18.7301 20.1943 18.3742 19.9851 18.132 19.5631C17.332 20.0879 17.332 20.0879 16.932 19.6292H16.8989C16.8769 19.6255 16.8512 19.6255 16.8402 19.6365C16.3008 20.1025 16.1833 20.0512 15.9595 19.3209L15.9228 19.1374C15.8714 18.8915 15.8237 18.642 15.4788 18.5906C15.4934 18.4255 15.5962 18.3154 15.71 18.2163C15.8237 18.231 15.8934 18.3044 15.9668 18.3814C16.0402 18.4622 16.1173 18.5429 16.2494 18.5576L16.2567 18.5539ZM16.6604 19.0787C16.5267 18.9471 16.3518 18.8655 16.165 18.8475C16.1173 19.0677 16.2054 19.2181 16.2898 19.3723L16.3742 19.5264C16.5944 19.4677 16.6604 19.3246 16.6604 19.0787ZM17.6733 19.4016C17.7393 19.6218 17.5778 19.6989 17.3797 19.6915C17.2219 19.5888 17.2145 19.4714 17.2035 19.3539C17.2035 19.3172 17.2035 19.2805 17.1925 19.2438C17.42 19.1741 17.6109 19.1998 17.6696 19.4016H17.6733ZM19.0237 19.5631C19.0861 19.2879 18.9503 19.3136 18.8182 19.3429C18.7668 19.3503 18.7155 19.3576 18.6788 19.3503C18.5907 19.3282 18.4843 19.3686 18.4879 19.4897C18.4953 19.6805 18.6457 19.7025 18.7852 19.6989C18.8549 19.6989 18.921 19.6475 19.0237 19.5631ZM20.0879 19.475C19.9485 19.3025 19.9044 19.1521 20.143 19.031C20.3118 18.9833 20.4622 18.9466 20.4549 19.1044C20.4439 19.2952 20.3228 19.442 20.0879 19.4714V19.475Z" fill="black"/>
<path d="M19.8787 11.5375C19.7253 12.517 19.7665 13.5171 19.9998 14.4807C20.1723 15.3027 19.442 16.477 18.2824 16.3045C17.8787 16.2458 17.6402 16.0073 17.5007 15.6513C17.4384 15.4935 17.4457 15.3284 17.6218 15.2476C17.7686 15.1852 17.8934 15.2403 17.9668 15.3944C18.1429 15.7651 18.4585 15.7394 18.7705 15.6476C19.1228 15.5412 19.3723 15.2953 19.398 14.9174C19.4237 14.5467 19.4053 14.1724 19.3393 13.8018C19.1292 12.6987 19.2413 11.5584 19.6622 10.5174C19.7429 10.3082 19.8604 10.1174 20.0989 10.2128C20.3741 10.3229 20.165 10.5357 20.1246 10.6935C20.0622 10.9651 19.9705 11.2329 19.8787 11.5375Z" fill="black"/>
<path d="M21.4017 11.7319C21.8824 11.7429 22.3338 11.7686 22.7852 11.8237C22.8953 11.8347 22.965 11.9448 22.9687 12.0659C22.9687 12.1906 22.9026 12.2751 22.7925 12.3228C22.3852 12.5026 21.9852 12.6273 21.5558 12.3301C21.3173 12.1686 21.2292 12.0145 21.4017 11.7319ZM15.732 11.831C15.9595 11.9521 15.9228 12.0879 15.809 12.2273C15.5705 12.5209 14.7742 12.5943 14.4733 12.3558C14.3008 12.2163 14.2054 12.0402 14.3118 11.8273C14.4219 11.6072 14.6127 11.6439 14.7889 11.7356C15.0824 11.8824 15.3907 11.8457 15.732 11.831Z" fill="black"/>
<path d="M21.1083 10.055C21.7542 10.0586 22.3633 10.0476 22.9652 10.0733C23.3175 10.088 23.6698 10.1577 24.0184 10.2128C24.1431 10.2348 24.2459 10.2972 24.2936 10.4366C24.6129 11.3761 24.7523 12.3155 24.3486 13.2697C24.1395 13.7724 23.8129 14.0403 23.2184 14.0476C22.2532 14.0586 21.2844 14.1394 20.3156 14.1284C19.6808 14.1247 19.4019 13.9302 19.2367 13.3284C19.1193 12.8807 18.8477 12.477 18.8624 11.9852C18.8734 11.7174 18.6129 11.6917 18.4147 11.6697C18.0844 11.633 17.8386 11.7614 17.6954 12.066C17.622 12.2274 17.6294 12.4036 17.6294 12.5761C17.6294 13.1082 17.3762 13.5375 17.0496 13.9192C16.6532 14.3852 16.0991 14.2311 15.5964 14.1944C14.7597 14.1357 13.923 14.0293 13.0863 13.9596C12.6202 13.9229 12.2422 13.677 12.2422 13.2109C12.2312 12.2054 11.6844 11.8018 10.789 11.5339C9.81287 11.2403 8.88443 10.7779 7.93397 10.3963C7.57801 10.2495 7.16333 10.2091 6.92847 9.76506C7.37984 9.68066 7.78351 9.83846 8.15415 10.0219C9.30546 10.563 10.4953 11.0181 11.7138 11.3834C11.9083 11.4458 12.0184 11.3687 12.0954 11.2183C12.1688 11.0641 12.2129 10.8953 12.2899 10.7449C12.6386 10.0843 13.1927 9.85314 14.0294 9.9669C14.8441 10.077 15.6587 10.2018 16.4881 10.2385C17.4055 10.2825 17.5927 10.4953 17.6734 11.288C18.0587 11.2586 18.4441 11.1045 18.8477 11.2293C18.9725 11.266 19.0422 11.0825 19.0826 10.9724C19.3762 10.1614 20.0587 10.055 20.7853 10.044C20.8808 10.044 20.9725 10.044 21.1083 10.0513V10.055Z" fill="black"/>
<path d="M13.4679 11.2841C13.4312 11.2731 13.5046 11.2841 13.4606 11.2988C13.2184 11.3722 15.3211 13.2364 15.5083 13.0786C15.6184 12.9869 13.6917 11.3795 13.4642 11.2804L13.4679 11.2841ZM14.2129 10.4107C14.1798 10.3997 14.2495 10.4107 14.2092 10.4254C13.9633 10.4988 16.0697 12.363 16.2532 12.2052C16.3633 12.1135 14.4367 10.5061 14.2129 10.4071V10.4107ZM20.6312 11.2841C20.6018 11.2731 20.6679 11.2841 20.6312 11.2988C20.3853 11.3722 22.4881 13.2364 22.6752 13.0786C22.7853 12.9869 20.8587 11.3795 20.6312 11.2804V11.2841ZM21.3798 10.4107C21.3468 10.3997 21.4165 10.4107 21.3762 10.4254C21.134 10.4988 23.2367 12.363 23.4202 12.2052C23.5303 12.1135 21.6037 10.5061 21.3798 10.4071V10.4107Z" fill="white"/>
<path d="M14.5137 9.64408C14.2862 9.62573 14.0917 9.61472 13.9082 9.61472C13.699 9.60738 13.5963 9.48995 13.5779 9.29178C13.5596 9.09729 13.688 9.0349 13.8531 8.97986C14.1687 8.86977 14.4807 8.96151 14.7779 9.00555C15.3431 9.08261 15.9339 8.98353 16.4807 9.23674C16.6642 9.32114 16.7853 9.40922 16.7155 9.61472C16.6495 9.80555 16.4917 9.80555 16.3265 9.76518C15.7394 9.6294 15.1376 9.79821 14.5137 9.64408ZM21.644 9.28445C22.2752 9.31747 22.8587 9.10096 23.4531 9.24041C23.5999 9.27711 23.7834 9.2661 23.7761 9.49729C23.7761 9.72481 23.6036 9.76885 23.4275 9.79087C22.7302 9.8716 22.033 9.93766 21.3394 10.0257C21.1302 10.0514 20.9357 10.0294 20.877 9.82023C20.8146 9.61105 21.0238 9.53399 21.1706 9.45325C21.299 9.37619 21.4568 9.33949 21.644 9.28078V9.28445Z" fill="black"/>
</g>
</svg>
