<svg width="45" height="45" viewBox="0 0 45 45" fill="none" xmlns="http://www.w3.org/2000/svg">
<path d="M29.0622 33.7499C29.0622 37.3742 26.1241 40.3123 22.4998 40.3123C18.8754 40.3123 15.9373 37.3742 15.9373 33.7499" stroke="#7682E8" stroke-width="1.5" stroke-linecap="round" stroke-linejoin="round"/>
<path d="M36.058 33.75H8.94143C7.10972 33.75 5.62482 32.265 5.62482 30.4334C5.62482 29.5538 5.97424 28.7102 6.59623 28.0881L7.72728 26.9571C8.78217 25.9023 9.3748 24.4715 9.3748 22.9797V17.8126C9.3748 10.5639 15.251 4.68767 22.4997 4.68767C29.7485 4.68767 35.6247 10.5639 35.6247 17.8126V22.9797C35.6247 24.4715 36.2174 25.9023 37.2722 26.9571L38.4032 28.0881C39.0252 28.7102 39.3747 29.5538 39.3747 30.4334C39.3747 32.265 37.8897 33.75 36.058 33.75Z" stroke="#7682E8" stroke-width="1.5" stroke-linecap="round" stroke-linejoin="round"/>
<circle cx="32.647" cy="9.70562" r="5.29409" fill="#FF0000"/>
</svg>
