<svg width="14" height="17" viewBox="0 0 14 17" fill="none" xmlns="http://www.w3.org/2000/svg">
<path d="M14 17H0V0H14V17Z" stroke="#E5E7EB"/>
<g clip-path="url(#clip0_224_3964)">
<path d="M6.99997 2.625C7.38825 2.625 7.74645 2.83008 7.94333 3.16641L13.8496 13.2289C14.0492 13.568 14.0492 13.9863 13.855 14.3254C13.6609 14.6645 13.2972 14.875 12.9062 14.875H1.09372C0.702702 14.875 0.33903 14.6645 0.144889 14.3254C-0.0492514 13.9863 -0.0465171 13.5652 0.150358 13.2289L6.05661 3.16641C6.25348 2.83008 6.61169 2.625 6.99997 2.625ZM6.99997 6.125C6.6363 6.125 6.34372 6.41758 6.34372 6.78125V9.84375C6.34372 10.2074 6.6363 10.5 6.99997 10.5C7.36364 10.5 7.65622 10.2074 7.65622 9.84375V6.78125C7.65622 6.41758 7.36364 6.125 6.99997 6.125ZM7.87497 12.25C7.87497 12.0179 7.78278 11.7954 7.61869 11.6313C7.45459 11.4672 7.23203 11.375 6.99997 11.375C6.7679 11.375 6.54534 11.4672 6.38125 11.6313C6.21715 11.7954 6.12497 12.0179 6.12497 12.25C6.12497 12.4821 6.21715 12.7046 6.38125 12.8687C6.54534 13.0328 6.7679 13.125 6.99997 13.125C7.23203 13.125 7.45459 13.0328 7.61869 12.8687C7.78278 12.7046 7.87497 12.4821 7.87497 12.25Z" fill="white"/>
</g>
<defs>
<clipPath id="clip0_224_3964">
<path d="M0 1.75H14V15.75H0V1.75Z" fill="white"/>
</clipPath>
</defs>
</svg>
