<svg width="11" height="12" viewBox="0 0 11 12" fill="none" xmlns="http://www.w3.org/2000/svg">
<g clip-path="url(#clip0_224_3469)">
<path d="M8.53613 1.96416C7.96426 1.39229 7.03613 1.39229 6.46426 1.96416L2.15176 6.27666C1.16504 7.26338 1.16504 8.86182 2.15176 9.84854C3.13848 10.8353 4.73691 10.8353 5.72363 9.84854L9.28613 6.28604C9.5416 6.03057 9.95879 6.03057 10.2143 6.28604C10.4697 6.5415 10.4697 6.95869 10.2143 7.21416L6.65176 10.7767C5.15176 12.2767 2.72363 12.2767 1.22363 10.7767C-0.276367 9.27666 -0.276367 6.84854 1.22363 5.34854L5.53613 1.03604C6.62129 -0.0491211 8.3791 -0.0491211 9.46426 1.03604C10.5494 2.12119 10.5494 3.879 9.46426 4.96416L5.33926 9.08916C4.66895 9.75947 3.58145 9.75947 2.91113 9.08916C2.24082 8.41885 2.24082 7.33135 2.91113 6.66104L6.28613 3.28604C6.5416 3.03057 6.95879 3.03057 7.21426 3.28604C7.46973 3.5415 7.46973 3.95869 7.21426 4.21416L3.83926 7.58916C3.68223 7.74619 3.68223 8.004 3.83926 8.16104C3.99629 8.31807 4.2541 8.31807 4.41113 8.16104L8.53613 4.03604C9.10801 3.46416 9.10801 2.53604 8.53613 1.96416Z" fill="#737373"/>
</g>
<defs>
<clipPath id="clip0_224_3469">
<path d="M0 0H10.5V12H0V0Z" fill="white"/>
</clipPath>
</defs>
</svg>
