<svg width="14" height="17" viewBox="0 0 14 17" fill="none" xmlns="http://www.w3.org/2000/svg">
<path d="M14 17H0V0H14V17Z" stroke="#E5E7EB"/>
<g clip-path="url(#clip0_222_3456)">
<path d="M7.875 2.625C7.875 2.14102 7.48398 1.75 7 1.75C6.51602 1.75 6.125 2.14102 6.125 2.625V9.26133L4.11797 7.2543C3.77617 6.9125 3.22109 6.9125 2.8793 7.2543C2.5375 7.59609 2.5375 8.15117 2.8793 8.49297L6.3793 11.993C6.72109 12.3348 7.27617 12.3348 7.61797 11.993L11.118 8.49297C11.4598 8.15117 11.4598 7.59609 11.118 7.2543C10.7762 6.9125 10.2211 6.9125 9.8793 7.2543L7.875 9.26133V2.625ZM1.75 11.375C0.784766 11.375 0 12.1598 0 13.125V14C0 14.9652 0.784766 15.75 1.75 15.75H12.25C13.2152 15.75 14 14.9652 14 14V13.125C14 12.1598 13.2152 11.375 12.25 11.375H9.47461L8.23594 12.6137C7.55234 13.2973 6.44492 13.2973 5.76133 12.6137L4.52539 11.375H1.75ZM11.8125 12.9062C11.9865 12.9062 12.1535 12.9754 12.2765 13.0985C12.3996 13.2215 12.4688 13.3885 12.4688 13.5625C12.4688 13.7365 12.3996 13.9035 12.2765 14.0265C12.1535 14.1496 11.9865 14.2188 11.8125 14.2188C11.6385 14.2188 11.4715 14.1496 11.3485 14.0265C11.2254 13.9035 11.1562 13.7365 11.1562 13.5625C11.1562 13.3885 11.2254 13.2215 11.3485 13.0985C11.4715 12.9754 11.6385 12.9062 11.8125 12.9062Z" fill="white"/>
</g>
<defs>
<clipPath id="clip0_222_3456">
<path d="M0 1.75H14V15.75H0V1.75Z" fill="white"/>
</clipPath>
</defs>
</svg>
