<svg width="28" height="32" viewBox="0 0 28 32" fill="none" xmlns="http://www.w3.org/2000/svg">
<path d="M28 32H0V0H28V32Z" stroke="#E5E7EB"/>
<g clip-path="url(#clip0_222_3143)">
<g clip-path="url(#clip1_222_3143)">
<path d="M8.99989 9C8.99989 8.44687 9.44677 8 9.99989 8H17.9999C18.553 8 18.9999 8.44687 18.9999 9C18.9999 9.55313 18.553 10 17.9999 10H17.078L17.4343 14.6312C18.5811 15.2531 19.4874 16.2937 19.9186 17.5906L19.9499 17.6844C20.053 17.9906 19.9999 18.325 19.8124 18.5844C19.6249 18.8438 19.3218 19 18.9999 19H8.99989C8.67802 19 8.37802 18.8469 8.18739 18.5844C7.99677 18.3219 7.94677 17.9875 8.04989 17.6844L8.08114 17.5906C8.51239 16.2937 9.41864 15.2531 10.5655 14.6312L10.9218 10H9.99989C9.44677 10 8.99989 9.55313 8.99989 9ZM12.9999 20H14.9999V23C14.9999 23.5531 14.553 24 13.9999 24C13.4468 24 12.9999 23.5531 12.9999 23V20Z" fill="#737373"/>
</g>
</g>
<defs>
<clipPath id="clip0_222_3143">
<rect width="12" height="16" fill="white" transform="translate(8 8)"/>
</clipPath>
<clipPath id="clip1_222_3143">
<path d="M8 8H20V24H8V8Z" fill="white"/>
</clipPath>
</defs>
</svg>
