<svg width="40" height="40" viewBox="0 0 40 40" fill="none" xmlns="http://www.w3.org/2000/svg">
<mask id="mask0_222_3139" style="mask-type:luminance" maskUnits="userSpaceOnUse" x="0" y="0" width="40" height="40">
<path d="M40 0H0V40H40V0Z" fill="white"/>
</mask>
<g mask="url(#mask0_222_3139)">
<path d="M29.7707 35.7197C25.2202 49.3436 13.0826 53.5454 6.66516 36.628C5.77984 34.3023 8.08718 33.4399 9.70186 32.4124C10.8074 31.7106 11.3899 31.1051 11.3211 30.4766C11 27.5225 9.62846 19.2931 9.62846 19.2931L9.49085 19.0271C9.49085 19.0271 9.52296 18.9537 9.38993 19.0821C9.25232 19.2197 8.9358 20.6509 7.69268 20.6509C6.56883 20.6509 5.4358 20.1509 4.89452 16.6922C4.6881 15.4399 4.79819 12.1555 6.19268 11.5592C6.76608 11.3161 7.2936 11.2289 7.80736 11.5225C8.32571 11.8161 7.21103 10.5133 12.945 5.74268C16.6697 2.63259 22.5551 2.17846 24.9312 2.70599C27.3074 3.23351 29.6789 4.39406 30.7294 6.85736C32.0046 9.83901 29.5413 12.1005 30.0872 18.8986C29.9863 21.3574 30.1239 26.7519 23.3624 28.5592C22.078 28.9032 22.4771 30.7794 24.4037 31.2381C27.4771 32.2014 29.7707 34.5546 29.7707 35.7289" fill="white"/>
<path fill-rule="evenodd" clip-rule="evenodd" d="M29.7706 14.55L29.7752 14.4858C29.9633 12.8161 30.1513 11.1968 31.0183 9.74268C31.3165 9.94451 31.2798 10.2014 31.188 10.4399C30.2752 12.7885 30.3624 15.2289 30.4449 17.6693L30.4633 18.3115C30.5596 21.3574 29.7981 24.128 27.7706 26.4537C27.0642 27.261 26.1284 27.8207 25.1789 28.3023C24.1972 28.8069 23.9908 29.2243 24.2981 30.3023L24.3348 30.4216C24.3991 30.6005 24.4633 30.784 24.289 30.9629C24.0825 31.1739 23.8532 31.1142 23.6101 31.0454L23.5825 31.0408C21.3082 30.404 19.1756 29.3408 17.2981 27.9078C17.0229 27.706 16.8027 27.4353 16.5871 27.1693L16.5734 27.1509C16.4587 27.0133 16.4357 26.7931 16.5963 26.6739C16.7477 26.5592 16.8624 26.6509 16.9954 26.7564L17.0413 26.7977C18.0429 27.6105 19.2586 28.1155 20.5413 28.2519C21.1559 28.3161 21.7614 28.2931 22.3761 28.2702C22.7156 28.2564 23.055 28.2427 23.3991 28.2473C23.8669 28.2473 24.2568 28.0317 24.6238 27.8252L24.7523 27.7519C26.0275 27.0408 27.2431 26.2473 28.0642 24.9674C28.8027 23.8207 29.2523 22.573 29.5137 21.2564C29.844 19.6005 29.8165 17.9216 29.789 16.2197C29.7752 15.6693 29.766 15.1096 29.766 14.55H29.7706ZM6.67887 11.0913C7.68345 11.0133 8.2385 11.6051 8.71098 12.2977C9.27096 13.144 9.62303 14.1106 9.7385 15.1188C9.76144 15.2885 9.78437 15.4674 9.68345 15.6372C9.47703 15.6647 9.45868 15.4996 9.4541 15.3803C9.43116 14.4307 9.00914 13.6051 8.58712 12.8069C8.28437 12.2335 7.84401 11.6785 7.14676 11.5408C6.35777 11.3803 5.633 12.0913 5.2752 13.0179C4.61006 14.7427 4.72474 16.4399 5.33942 18.1096C5.60547 18.839 5.94034 19.5821 6.61465 20.0913C7.29355 20.6096 8.11465 20.5179 8.61465 19.8298L8.70639 19.7152C8.79813 19.5959 8.88988 19.4812 8.93575 19.3482C9.03208 19.0821 9.18345 18.8344 9.4541 18.8711C9.76602 18.917 9.82107 19.2519 9.85318 19.5133C10.1377 21.9163 10.4742 24.3129 10.8624 26.7014L11.133 28.4812C11.2523 29.2656 11.3899 30.3941 11.2981 30.8711C11.2922 30.9046 11.2876 30.9382 11.2844 30.972C11.266 31.1005 11.2568 31.2014 11.0917 31.2243C10.8669 31.261 10.7706 31.1326 10.7385 30.9307C10.633 30.1509 10.6009 29.8482 10.555 28.6555C10.5137 27.4996 10.2981 26.3619 10.078 25.2197L9.84859 23.9812C9.61006 22.5684 9.37612 21.1372 9.35318 19.5317L9.26144 19.6693C8.91281 20.1876 8.633 20.6096 8.13758 20.7702C7.76983 20.9111 7.36681 20.9315 6.98672 20.8284C6.60662 20.7254 6.26911 20.5042 6.0229 20.1968C5.37652 19.4667 4.92244 18.587 4.7018 17.6372C4.31648 16.0775 4.24767 14.5592 4.74309 13.0225C4.98162 12.284 5.83024 10.972 6.67887 11.0959V11.0913ZM8.26602 16.9399C8.46786 17.0867 8.65134 17.2152 8.81648 16.6922C8.76602 14.7564 8.14217 13.5179 7.17428 13.4674C7.68804 14.1372 8.18345 14.7885 8.22933 15.6922C8.03845 15.5947 7.87099 15.457 7.7385 15.2885C7.64676 15.1876 7.55501 15.0867 7.44034 15.0133L7.30272 14.9032C7.08254 14.7381 6.85777 14.5638 6.48621 14.6968C6.66052 14.9629 6.89905 15.1555 7.14217 15.339C7.4174 15.5546 7.69263 15.7656 7.85777 16.0959C7.37153 16.4491 7.16052 16.9078 7.41281 17.4674C7.633 17.9491 7.95868 18.3482 8.60089 18.3757C8.57336 18.0867 8.38529 17.8757 8.19722 17.6693C7.96786 17.4216 7.75226 17.183 7.85318 16.8161C7.99997 16.7473 8.13758 16.8482 8.26602 16.9399Z" fill="black"/>
<path d="M48.3486 60.197L-11.6973 60.3209C-11.6973 60.3209 -10.5138 51.6512 -9.11928 49.509C-8.37158 48.3622 -9.60552 47.4447 -9.87158 46.2842C-10.1376 45.1282 -10.4129 43.6282 -10.3532 43.1924C-10.2982 42.7567 -10.4174 41.8484 -10.5505 41.2062C-10.6881 40.564 -10.5597 39.908 -10.8716 39.3484C-11.1927 38.7934 -11.2386 38.2016 -10.8716 37.9402C-10.5046 37.6741 4.7798 32.275 4.7798 32.275L5.25228 31.2842C5.25228 31.2842 7.40824 29.6879 8.5642 29.4172C9.72017 29.1466 10.7248 28.9723 10.7248 28.9723C10.7248 28.9723 10.4862 30.0869 10.6605 30.6512C10.844 31.22 14.4037 33.5869 17.2293 33.3576C21.1009 33.3576 24.1514 31.5044 24.3991 30.7888C24.6468 30.0778 24.2477 29.9264 24.0963 29.3346C23.9403 28.7475 24.3119 28.5319 24.9816 28.8989C25.6468 29.2658 34.6743 33.986 36.633 34.8805C38.5871 35.7796 45.9266 38.064 45.9266 38.064C45.9266 38.064 47.3119 38.4677 47.1514 38.853C46.8027 39.6741 46.0459 38.8989 46.0459 41.1282C46.0459 42.5044 44.8853 46.8897 44.8853 46.8897C44.8853 46.8897 46.7018 52.564 47.0046 53.6879C47.3119 54.8117 48.3486 60.2016 48.3486 60.2016V60.197Z" fill="white"/>
<path fill-rule="evenodd" clip-rule="evenodd" d="M6.93572 60.3211C6.81646 57.6972 6.70636 55.0779 6.73389 52.4495C6.77058 49.3394 6.766 46.2201 6.70178 43.11C6.6926 42.7155 6.70178 42.321 6.70636 41.9311C6.72013 41.1743 6.7293 40.4174 6.64214 39.6605C6.63297 39.5963 6.63297 39.5321 6.63297 39.4633C6.63297 39.2935 6.63297 39.1146 6.50912 38.9266L6.22013 39.0642C5.85315 39.2477 5.48618 39.4357 5.03664 39.3669C4.50453 39.2798 4.23847 39.0733 4.27517 38.5275C4.31927 37.9194 4.38813 37.3134 4.48159 36.711C4.57334 36.133 4.60086 35.5504 4.62838 34.9587C4.66508 34.2614 4.70178 33.5504 4.8348 32.8302C3.99535 33.0596 3.20178 33.2889 2.44948 33.6467C1.42196 34.1376 0.311868 34.3899 -0.789049 34.6422L-1.03676 34.6972C-2.18355 34.9541 -3.3074 35.2935 -4.40373 35.7155C-4.8074 35.8715 -5.22024 36.0091 -5.63309 36.1467C-6.28437 36.3488 -6.9231 36.5893 -7.54593 36.8669C-8.49999 37.3234 -9.43787 37.813 -10.3579 38.3348C-10.7019 38.5275 -10.7569 38.844 -10.4496 39.1605C-10.3067 39.2988 -10.2085 39.4766 -10.1676 39.6712C-10.1267 39.8658 -10.1451 40.0682 -10.2202 40.2522C-10.2649 40.3919 -10.2806 40.5392 -10.2664 40.6851C-10.2522 40.831 -10.2084 40.9725 -10.1377 41.1009C-9.97254 41.5077 -9.90499 41.9476 -9.94043 42.3853C-9.94043 42.5825 -9.94043 42.7798 -9.92666 42.9678C-9.74495 44.7311 -9.20152 46.4379 -8.33033 47.9816C-7.98936 48.6441 -7.68314 49.3239 -7.4129 50.0183C-7.18354 50.5596 -6.96336 51.1009 -6.70648 51.6238C-6.61474 51.8073 -6.1285 53 -5.56428 54.4633C-5.51841 54.5917 -5.58263 54.7935 -5.65143 55C-5.72024 55.211 -5.78905 55.4266 -5.73859 55.5596C-5.68355 55.6972 -5.52758 55.7568 -5.36244 55.8211C-5.21565 55.8669 -5.06887 55.9266 -4.96795 56.0366C-4.40832 56.6697 -4.24777 57.1376 -4.03676 57.766L-4.02758 57.7844C-3.68355 58.7981 -3.63767 59.9403 -3.63309 60.2614C-3.84837 60.313 -4.07241 60.3161 -4.28905 60.2706C-4.19731 59.6146 -4.33492 59.0183 -4.47712 58.422C-4.52299 58.211 -4.57804 58 -4.61474 57.7844C-4.74318 57.0825 -5.05052 56.5733 -5.73859 56.3302C-6.22024 56.1651 -6.37162 55.8623 -6.32116 55.3302L-6.27529 54.9862C-6.21107 54.5321 -6.13767 54.0642 -6.4129 53.6559C-7.12391 52.6009 -7.63309 51.4403 -8.15143 50.2614L-8.46336 49.555L-8.52758 49.6559C-8.64578 49.8166 -8.7386 49.9945 -8.80281 50.1834L-9.18813 51.5137C-9.71565 53.3577 -10.2478 55.1972 -10.6423 57.0733C-10.8716 58.1513 -11.0046 59.2293 -11.0918 60.3211H-11.7569C-11.9175 59.7935 -11.8028 59.2889 -11.6881 58.7844C-11.6478 58.6157 -11.6126 58.4459 -11.5826 58.2752C-11.2845 56.422 -10.8074 54.6192 -10.3303 52.8119L-10.3074 52.7155C-9.95419 51.3807 -9.46795 50.11 -8.95419 48.8394C-8.84868 48.5825 -8.89914 48.4174 -9.08263 48.211C-9.77988 47.4082 -10.0138 46.3944 -10.1744 45.3853L-10.2569 44.8899C-10.4404 43.8119 -10.6193 42.7339 -10.5322 41.633C-10.8395 41.2752 -10.867 40.8348 -10.89 40.3944C-10.9175 39.9357 -10.945 39.477 -11.289 39.0963C-11.5826 38.7752 -11.1744 37.9403 -10.601 37.6192C-9.07804 36.7706 -7.53676 35.9678 -5.85327 35.4724C-5.06552 35.2331 -4.29077 34.9529 -3.53217 34.633C-2.75694 34.3119 -1.9496 34.1376 -1.14226 33.9541C-0.628499 33.8394 -0.119325 33.7247 0.380675 33.5779C1.00453 33.3944 1.60545 33.1651 2.21554 32.9357C2.97771 32.623 3.75912 32.3595 4.55499 32.1467C4.87609 32.0688 5.07334 31.8669 5.07792 31.5229C5.08251 31.1697 5.27058 30.9587 5.54123 30.7568C6.57334 29.9816 7.77517 29.61 8.97242 29.2339L9.12838 29.188C9.32104 29.1238 9.49994 29.0412 9.67884 28.9587C9.97213 28.7998 10.29 28.6912 10.6192 28.6376C10.7706 28.61 10.9174 28.5825 11.0871 28.6376C11.1788 28.9403 10.9954 29.0917 10.7752 29.1834L10.0687 29.4724C9.28022 29.8137 8.48004 30.1273 7.66967 30.4128C7.31187 30.5366 6.99536 30.7339 6.67884 30.922C6.41279 31.0871 6.14673 31.2477 5.85315 31.3669C5.74765 31.4128 5.66049 31.6238 5.64214 31.766C5.49077 33.11 5.35315 34.4541 5.21554 35.8027L5.15132 36.4082L5.0871 37.055C5.0504 37.4495 5.00912 37.8348 4.96325 38.2293C4.96325 38.266 4.95407 38.2981 4.94489 38.3348C4.92196 38.4724 4.89902 38.6146 5.02747 38.7247C5.16508 38.8348 5.28893 38.7706 5.41279 38.7018L5.5137 38.6559C6.81187 38.0917 7.73389 37.0871 8.65591 36.0871C8.86233 35.8577 9.06875 35.6284 9.27976 35.4128C9.95407 34.7064 10.5137 34.5458 11.3761 34.9678C11.6376 35.0917 11.8761 35.1788 12.188 35.0642C12.0229 34.7247 11.844 34.3944 11.6651 34.0642C11.2798 33.3577 10.9036 32.6605 10.6467 31.9036C10.4174 31.2339 10.4862 30.5458 10.5504 29.8669L10.5642 29.7293C10.5871 29.4724 10.7614 29.2614 11.0871 29.2385C11.3577 29.5045 11.3623 29.9403 11.3623 30.2018C11.3532 31.3486 12.1926 31.7293 12.9541 32.0733L12.977 32.0871C15.2843 33.1376 17.7339 33.2339 20.1972 32.8577C21.5689 32.6729 22.8527 32.0781 23.8807 31.1513C24.4036 30.6743 24.3394 30.1009 24.0871 29.5779C23.8807 29.1651 24.0183 28.899 24.2568 28.633C24.4724 28.3944 24.7293 28.4954 24.9678 28.5871L25.0733 28.633C26.4862 29.1376 27.7798 29.8807 29.0825 30.6238L29.3119 30.7614C29.9286 31.0996 30.5608 31.4088 31.2064 31.688C31.7935 31.9541 32.3807 32.2247 32.9495 32.5366C34.5366 33.4082 36.1651 34.2064 37.7981 34.9954C38.6467 35.4082 39.5458 35.7155 40.4449 36.0275L41.1926 36.2935C41.8302 36.5229 42.4724 36.7339 43.11 36.9495C43.6605 37.133 44.2109 37.3165 44.7522 37.5091C44.9999 37.6009 45.2568 37.61 45.5137 37.6238C45.7843 37.6376 46.055 37.6513 46.3165 37.7522L46.5229 37.8302C46.844 37.9449 47.1559 38.0596 47.3853 38.344C47.7339 38.7798 47.7201 39.1422 47.2476 39.4311C46.688 39.766 46.3853 40.1421 46.633 40.8165C46.7064 41.0183 46.6192 41.2293 46.5412 41.4266L46.5183 41.4816L46.5091 41.5045C46.0504 42.6513 45.7385 45.1559 45.6559 45.7889L45.6421 45.9174C45.4678 47.1559 45.7706 48.0275 46.11 49.0229C46.1965 49.2724 46.2791 49.5232 46.3577 49.7752C46.899 51.5366 47.422 53.3073 47.899 55.0871C48.2975 56.5846 48.6251 58.1 48.8807 59.6284C48.9082 59.7844 48.899 59.9495 48.8899 60.133V60.2706C48.7055 60.3204 48.5116 60.3236 48.3256 60.2798C47.8944 57.0733 46.9632 54.0321 46.0321 50.9954C45.7246 49.9936 45.4264 48.9889 45.1376 47.9816C44.8537 48.4451 44.6229 48.939 44.4495 49.4541C43.9829 50.9846 43.1858 52.3939 42.1146 53.5825L42.0596 53.6422C41.8761 53.844 41.6559 54.0779 41.6926 54.2431C41.8165 54.8394 41.5137 55.188 41.1972 55.555L41.0504 55.7293C40.8396 55.9946 40.7034 56.3113 40.6559 56.6467C40.5963 57.0229 40.5275 57.399 40.4587 57.7752C40.2851 58.6145 40.1732 59.4654 40.1238 60.3211H39.4678C39.5596 60.0412 39.5779 59.7155 39.6054 59.3027C39.6454 58.2584 39.8275 57.2244 40.1467 56.2293C40.1788 56.0458 40.2247 55.7752 40.6513 55.3348C41.0412 54.9403 41.0366 54.4724 41.0321 54.1788C41.0321 54.0688 41.0321 53.9862 41.0504 53.9403C41.3073 53.2889 42.2155 52.1284 42.6605 51.555C42.7981 51.3853 42.8899 51.266 42.9082 51.2293C43.9678 49.4862 44.7155 47.5642 45.11 45.5596C45.2385 44.9311 45.3394 44.2935 45.4449 43.6513C45.5433 43.0102 45.6534 42.371 45.7752 41.7339C45.8899 41.1238 46.0045 40.5183 46.0321 39.8899C46.0458 39.5504 46.3348 39.3853 46.6054 39.2247L46.6651 39.188L46.688 39.1788L46.7064 39.1651C46.8531 39.0733 47.0137 38.9816 46.9908 38.7844C46.9678 38.6009 46.8119 38.555 46.6559 38.5091L46.5963 38.4908C46.1284 38.3532 45.6467 38.2522 45.1697 38.1513C44.5542 38.0369 43.9473 37.8806 43.3531 37.6834L42.422 37.3623C41.7843 37.1376 41.1513 36.922 40.5275 36.6743C39.3229 36.2167 38.1313 35.7257 36.9541 35.2018C35.6021 34.5777 34.2711 33.9091 32.9632 33.1972C32.1149 32.7189 31.2243 32.3196 30.3027 32.0045C31.2018 33.5963 31.3623 35.344 31.5275 37.0871C31.5687 37.5321 31.61 37.9724 31.6651 38.4082C31.7339 38.9908 31.5275 39.4862 31.0412 39.7844C30.477 40.1238 29.8807 40.0688 29.3165 39.7201L29.1788 39.6192C29.0779 39.5275 28.9678 39.4357 28.7981 39.4449C28.7798 41.7201 28.7981 43.9954 28.8073 46.2706C28.8348 50.922 28.8623 55.5825 28.6559 60.2614C28.4056 60.3169 28.1466 60.3216 27.8944 60.2752C27.9174 59.3394 27.9632 58.4128 28.0045 57.4908C28.0504 56.4174 28.1009 55.3486 28.1284 54.2798C28.1651 52.4495 28.1559 50.6238 28.1467 48.7935L28.1376 47.766C28.1284 45.3348 28.1009 42.899 28.0779 40.4633L28.0687 39.5504C28.0687 39.4587 28.0733 39.3669 28.0871 39.2798C28.11 39.0275 28.1376 38.7752 27.9357 38.5366C27.6238 38.1697 27.3256 37.7981 27.0275 37.422L26.422 36.6788C26.0725 36.2763 25.6528 35.9406 25.1834 35.688C24.7064 35.4128 24.4999 35.5504 24.3899 36.0688C24.321 36.3761 24.3532 36.6743 24.3899 36.9724C24.4082 37.1422 24.4265 37.3119 24.4265 37.477C24.4449 41.1834 24.3532 44.8853 24.2293 48.5871C24.1605 50.6513 24.1192 52.7293 24.0871 54.7981C24.0687 55.8853 24.0183 56.9724 23.9724 58.055C23.9357 58.8119 23.9036 59.5688 23.8807 60.3302C23.6972 60.3302 23.4265 60.3073 23.2476 60.2706C23.2843 59.211 23.3394 58.0642 23.3853 57.0504C23.4367 56.1565 23.4749 55.2619 23.4999 54.3669C23.5045 52.7844 23.5687 49.7889 23.6284 46.9174C23.6788 44.4999 23.7293 42.1743 23.7431 40.844C23.7564 39.2278 23.7564 37.6115 23.7431 35.9954C23.2201 35.9128 22.7798 36.1651 22.3853 36.5321C22.0174 36.8622 21.5674 37.0872 21.0825 37.1834C19.2293 37.5963 17.3532 37.7201 15.4678 37.4128C14.4908 37.2568 13.5596 36.9724 12.8119 36.266C12.6743 36.1284 12.5137 36.0091 12.3256 35.8715C12.2223 35.7947 12.1199 35.7167 12.0183 35.6376C12.0183 35.8532 12.0642 36.5871 12.1284 37.5045C12.2293 39.0321 12.3669 41.0779 12.3715 42.1238C12.3715 42.9587 12.4128 43.7935 12.4495 44.6284L12.4908 45.4999C12.4908 45.61 12.7201 57.0137 12.7201 59.4999V59.6605C12.7155 59.8807 12.7064 60.1055 12.7981 60.3211C12.5412 60.3256 12.2935 60.3119 12.0366 60.2752C12.1192 59.4541 12.0091 54.2477 11.9265 50.5229C11.8898 48.7889 11.8623 47.3761 11.8623 46.8761C11.8623 44.9954 11.7614 43.11 11.6605 41.2293C11.5779 39.5825 11.4908 37.9403 11.4678 36.2935C11.4632 35.8027 11.3348 35.5504 10.8577 35.399C10.3715 35.2385 10.0458 35.4357 9.77976 35.766C9.3348 36.3165 8.84857 36.821 8.31646 37.2889C7.97512 37.5595 7.70073 37.9051 7.51458 38.2989C7.32842 38.6927 7.23551 39.1241 7.24306 39.5596C7.19719 42.0596 7.28893 44.5504 7.37609 47.0458C7.46324 49.4862 7.54581 51.9266 7.50912 54.3669C7.48618 55.7293 7.51829 57.0963 7.55499 58.4587L7.59168 60.3211H6.93572ZM30.4678 34.2018C30.2798 33.1284 29.8531 32.1376 29.0275 31.4449C27.9357 30.5275 26.6376 29.9541 25.3256 29.3807L24.6467 29.0779C24.8415 29.3402 24.9706 29.6453 25.0233 29.9678C25.076 30.2902 25.0506 30.6205 24.9495 30.9311C24.7547 31.5297 24.4684 32.0945 24.1009 32.6055C23.5183 33.3761 23.188 34.2431 23.4265 35.2889C24.1009 34.9128 24.7293 34.6926 25.4862 35.0779C26.278 35.5086 26.9558 36.1219 27.4632 36.8669C28.0871 37.7018 28.7155 38.5183 29.5825 39.1192C29.9311 39.3623 30.3027 39.3486 30.6513 39.211C31.0045 39.0688 30.9999 38.7155 30.9632 38.3899C30.9174 37.977 30.8944 37.5596 30.8715 37.1376C30.8073 36.1743 30.7476 35.2018 30.4678 34.2018ZM12.2201 33.8348C12.1009 33.6238 11.9862 33.4082 11.8761 33.1834C11.6898 32.7659 11.5033 32.3485 11.3165 31.9311C15.1697 34.1926 19.1009 34.4174 23.2293 32.5412L23.0825 32.8807C22.9174 33.2568 22.7614 33.6146 22.6834 34.0091L22.6559 34.1467C22.6146 34.3302 22.5779 34.5137 22.5917 34.7064C22.6467 35.6238 22.3898 35.977 21.5183 36.2981C20.0687 36.8302 18.5733 36.8944 17.055 36.8027C16.6824 36.7778 16.3089 36.7717 15.9357 36.7844C15.0321 36.8165 14.2889 36.4082 13.5504 35.9954L13.2522 35.8348C13.0841 35.7293 12.9602 35.5663 12.9036 35.3761C12.7522 34.8256 12.4862 34.3302 12.2155 33.8394L12.2201 33.8348Z" fill="black"/>
<path d="M10.867 7.2932C12.5275 4.70146 15.9037 1.35742 20.1101 1.35742C22.578 1.35742 26.0734 2.37577 27.9909 4.29779C29.5826 5.88953 30.2386 9.01797 30.2386 9.01797C30.2386 9.01797 27.0459 6.99504 26.0184 6.10513C24.6356 4.86514 23.2998 3.57372 22.0138 2.23357C22.0138 2.23357 19.2982 5.92164 16.4358 7.40788C14.5734 8.37577 9.37159 11.9492 9.37159 11.9492C9.37159 11.9492 9.35783 9.651 10.8716 7.2932H10.867Z" fill="white"/>
<path fill-rule="evenodd" clip-rule="evenodd" d="M9.12843 30.3163C9.6055 30.2979 9.88531 30.3667 9.99999 30.8897C10.0367 31.1007 10.1422 31.2337 10.2477 31.3622L10.3027 31.431C11.4908 32.9768 13.2248 33.4723 15.0092 33.6787C16.3394 33.8301 17.6927 33.7108 19.0367 33.5869L19.4495 33.5502C20.4725 33.4585 21.4679 33.2016 22.4128 32.7888C22.8027 32.6236 23.1697 32.408 23.5367 32.1924C24.0229 31.908 24.5092 31.6236 25.0459 31.4493C26.2615 31.0548 27.4541 30.9493 28.4725 31.9539C29.289 32.7567 30.2018 33.1374 31.3257 32.5961C31.3827 32.5702 31.4428 32.5517 31.5046 32.5411L31.6055 32.5181C32.156 32.3667 32.5229 31.9906 32.8899 31.6099C33.0688 31.4264 33.2477 31.2429 33.4404 31.0915C36.1972 28.8897 35.0642 25.3576 34.4495 23.4585V23.4493L34.4128 23.3438C33.1009 19.2612 32.9771 15.9126 32.867 12.908C32.6926 8.11445 32.5459 4.21078 27.6376 -0.3672C24.8349 -2.98188 21.4128 -3.0094 19.367 -3.02775H18.9633C11.3027 -3.13326 5.07797 4.67867 4.11008 8.07317C2.27981 14.4723 3.84403 21.3805 8.48623 24.8851C9.34403 25.5365 10.0046 26.3989 10.6605 27.3622C9.86238 26.9723 9.27522 26.3759 8.70183 25.7796C8.26146 25.3209 7.82109 24.8667 7.28898 24.5227C6.67841 24.8587 6.13307 25.3015 5.67889 25.83C4.69724 27.0778 3.53669 28.0548 2.0321 28.5961C0.940358 28.9906 0.233936 29.7979 -0.22478 30.8255C-0.458358 31.3993 -0.638032 31.9936 -0.761477 32.6007C-0.866982 33.0365 -0.967899 33.4723 -1.11469 33.8943C-1.1835 34.0961 -1.16973 34.2934 -0.977074 34.4218C-0.75689 34.564 -0.495422 34.5732 -0.32111 34.408C-0.0596422 34.1649 0.238523 34.1603 0.541275 34.1603H0.844027C1.04586 34.1695 1.24311 34.1741 1.42201 34.0686C2.11008 33.6557 2.87155 33.4723 3.63761 33.2888C4.10091 33.1787 4.5688 33.064 5.01834 32.8989C5.50916 32.72 5.95412 32.5227 6.26605 32.0961C6.98164 31.119 7.80733 30.3622 9.12843 30.3163ZM22.0642 2.6695C23.055 4.09152 24.2293 5.19243 25.5871 6.10987C26.6743 7.00895 27.7431 7.80253 28.8716 8.48601C29.8532 9.07775 30.156 9.87133 29.9816 10.9401C29.7316 12.4235 29.6195 13.9269 29.6468 15.431C29.6514 15.7429 29.6835 16.0548 29.7156 16.3667C29.9012 17.9697 29.7544 19.5937 29.2844 21.1374L29.1009 21.8025C28.9037 22.5365 28.7018 23.275 28.3486 23.9539L28.3027 24.0456C27.7569 25.1007 27.1972 26.1924 26.1468 26.8301C24.6468 27.7429 23.0275 28.1787 21.2293 27.853L20.1147 27.6466C19.5917 27.5456 19.0642 27.4447 18.5413 27.3576C17.9082 27.2521 17.3486 26.8667 16.8257 26.4998L16.789 26.4722C16.4483 26.2278 16.1191 25.9676 15.8027 25.6924C15.4679 25.4172 15.1376 25.142 14.7798 24.8943C13.9174 24.3025 13.2844 23.5044 12.656 22.7062C12.4827 22.4839 12.3069 22.2637 12.1284 22.0456C11.4825 21.2437 10.94 20.3637 10.5138 19.4264C10.3165 18.986 10.1651 18.5227 10.0734 18.0502C9.68806 16.1924 9.35779 14.3346 9.95412 12.4539C10.078 12.064 10.2798 11.7658 10.578 11.5732C11.1284 11.2245 11.6835 10.8943 12.2431 10.5594C13.26 9.96329 14.2546 9.32983 15.2248 8.66032C16.5413 7.75665 17.867 6.8484 19.0917 5.8117C20.1789 4.89427 21.1743 3.89886 22.0642 2.6695ZM19.9541 4.1695C20.3807 3.75665 20.8211 3.32546 21.1193 2.71078C17.656 2.56858 14.8073 3.73372 12.5688 6.21078C11.3385 7.52255 10.4817 9.13964 10.0871 10.8943C13.3945 9.11904 16.555 7.16491 19.4495 4.67867C19.6101 4.50436 19.7798 4.33464 19.9541 4.1695ZM23.3303 3.03188C25.0957 3.19247 26.7501 3.9629 28.0092 5.21078C28.844 6.06399 29.5688 6.88509 29.6147 8.11445C29.1835 7.8117 28.7523 7.51812 28.3165 7.21996C26.5138 5.9906 24.7248 4.77042 23.3303 3.03188Z" fill="black"/>
<path d="M25.5963 24.1831C25.8578 23.9996 25.9174 23.6969 25.9954 23.4262C26.0871 23.1051 25.9174 22.8299 25.5917 22.8758C25.2156 22.9217 24.8302 22.94 24.4633 23.1051C24.0785 23.2914 23.6581 23.3926 23.2307 23.4021C22.8033 23.4116 22.3789 23.3291 21.9862 23.1602C21.6146 22.9905 21.2201 22.885 20.8165 22.8345C20.2293 22.7657 19.977 23.0272 20 23.6006C20.0183 24.1006 20.4679 24.4996 21.0779 24.5226C22.5458 24.5822 23.9724 23.9675 25.4541 24.2473C25.4724 24.2519 25.4908 24.2336 25.5917 24.1831H25.5963Z" fill="white"/>
<path fill-rule="evenodd" clip-rule="evenodd" d="M21.9541 22.4447C21.4954 22.2016 21.0045 21.9493 20.3944 22.1145C19.4082 22.5044 19.1467 23.1328 19.4266 24.0823C19.711 25.0456 21.1055 25.3576 21.9816 25.22C22.2339 25.1833 22.4862 25.1145 22.7431 25.0456C23.3761 24.8805 24.0091 24.7154 24.6697 24.9631C25.2706 25.1924 25.7431 24.931 26.1834 24.5961C26.688 24.2154 26.8853 23.0823 26.5779 22.5548C26.3577 22.1833 25.5917 21.9585 25.0917 22.142C24.761 22.2578 24.4416 22.4037 24.1376 22.5778C23.4816 22.9723 22.8761 22.9034 22.2064 22.5778L21.9541 22.4493V22.4447ZM25.9633 23.5227C25.8944 23.7704 25.8256 24.0273 25.5917 24.1833C25.5453 24.2034 25.4994 24.2249 25.4541 24.2475C24.61 24.0869 23.7798 24.22 22.9495 24.353C22.3327 24.471 21.7059 24.5279 21.0779 24.5227C20.4678 24.4998 20.0229 24.1007 20 23.6053C19.977 23.0273 20.2293 22.7612 20.8165 22.8301C21.2201 22.8759 21.6146 22.986 21.9862 23.1512C22.3786 23.3208 22.8028 23.4041 23.2302 23.3954C23.6576 23.3867 24.0781 23.2862 24.4633 23.1007C24.766 22.9631 25.0779 22.931 25.3899 22.8943L25.5917 22.8713C25.9174 22.8255 26.0871 23.1007 25.9954 23.4218L25.9678 23.5181L25.9633 23.5227Z" fill="black"/>
<path d="M24.344 12.6372C24.1467 13.7198 24.0091 14.7381 24.3302 15.7932C24.5657 16.6355 25.0965 17.365 25.8256 17.8482C26.8485 18.5271 26.8669 19.8207 25.844 20.4858C24.7155 21.229 23.5137 21.128 22.3118 20.8299C21.7706 20.6923 21.4907 20.1785 21.3485 19.6647C21.2247 19.2244 21.6467 18.5088 22.11 18.2427C22.2522 18.417 22.2201 18.5638 22.1192 18.7611C21.8118 19.3253 22.1192 20.2014 22.7384 20.2565C23.6467 20.3345 24.6054 20.5225 25.4495 19.8895C26.0228 19.4583 26.0917 18.9033 25.532 18.4491C25.1972 18.1785 24.8715 17.9124 24.5871 17.5868C23.3027 16.1326 23.2155 14.4583 23.6696 12.6785C23.8302 12.0225 24.0917 11.44 24.5412 10.9354C24.6788 10.7794 24.8164 10.6005 25.0228 10.7335C25.2935 10.9124 25.0779 11.1189 24.977 11.284C24.7201 11.6968 24.4907 12.1234 24.344 12.6372Z" fill="black"/>
<path d="M26.7523 14.665C27.3532 14.6788 27.9174 14.7109 28.4816 14.7797C28.6192 14.7935 28.7064 14.9311 28.711 15.0825C28.711 15.2384 28.6284 15.3439 28.4908 15.4036C27.9816 15.6283 27.4816 15.7843 26.9449 15.4127C26.6467 15.2109 26.5367 15.0183 26.7523 14.665ZM19.6651 14.7889C19.9495 14.9403 19.9036 15.11 19.7614 15.2843C19.4633 15.6513 18.4678 15.743 18.0917 15.4449C17.8761 15.2705 17.7568 15.0504 17.8899 14.7843C18.0275 14.5091 18.266 14.5549 18.4862 14.6696C18.8532 14.8531 19.2385 14.8072 19.6651 14.7889Z" fill="black"/>
<path fill-rule="evenodd" clip-rule="evenodd" d="M20.1055 11.8482L23.7018 11.8253L29.4633 11.7886L29.7477 11.7794C30.0779 11.7611 30.4174 11.7473 30.711 11.8895C31.1743 12.1188 31.2018 12.5776 31.2293 13.0088C31.3834 14.2407 31.2451 15.4916 30.8256 16.6601C30.7031 16.9894 30.5072 17.2864 30.2529 17.5288C29.9986 17.7712 29.6925 17.9526 29.3577 18.0592C28.2798 18.417 27.1559 18.6785 26.055 18.2794C25.6187 18.1467 25.2183 17.9168 24.8837 17.6069C24.5492 17.297 24.2894 16.9153 24.1238 16.4904C24.0688 16.3436 23.9999 16.1968 23.9357 16.0546C23.7543 15.7218 23.6449 15.3545 23.6146 14.9766C23.6055 14.7611 23.3532 14.6051 23.0779 14.6051C22.7568 14.6051 22.5871 14.8115 22.4541 15.0592C22.355 15.2676 22.2841 15.4881 22.2431 15.7152C22.2064 15.8803 22.1651 16.05 22.1055 16.2106C21.4541 17.9078 20.3256 18.7473 18.5229 18.7106C17.3827 18.6841 16.2928 18.2364 15.4633 17.4537C15.142 17.1724 14.8889 16.822 14.7228 16.4286C14.5567 16.0353 14.4821 15.6094 14.5045 15.1831C14.5081 14.9996 14.5081 14.8161 14.5045 14.6326C13.57 14.3932 12.6558 14.0803 11.7706 13.6968C10.9266 13.3482 10.0825 13.0179 9.20178 12.7977C9.05041 12.7611 8.94949 12.706 8.88986 12.573C8.70637 12.1922 8.44949 11.862 8.12839 11.4491L7.99536 11.2886L8.86233 11.44C9.44949 11.5455 9.99536 11.6418 10.5458 11.7289C10.9954 11.8023 11.4495 11.8849 11.899 11.9675C12.821 12.1372 13.7431 12.3069 14.6834 12.3757C14.9862 12.3941 15.2568 12.3895 15.5183 12.1051C15.8027 11.7932 16.266 11.8161 16.6651 11.8299L16.7935 11.839C17.8807 11.8757 18.9633 11.8849 20.1055 11.8482ZM12.3899 13.5638C12.5183 13.6326 12.6284 13.6143 12.6284 13.4537C12.6284 12.5867 11.9633 12.1234 11.0642 12.3757C11.2477 13.0179 11.7339 13.3161 12.3899 13.5684V13.5638ZM13.1238 13.7289C13.0321 13.6601 12.9862 13.5363 12.8669 13.2106C12.7064 12.9354 12.6376 12.7244 12.6972 12.3849C12.9688 12.6428 13.1518 12.98 13.2201 13.3482C13.266 13.5088 13.3119 13.6693 13.3853 13.8161C13.2614 13.7886 13.1834 13.7702 13.1238 13.7244V13.7289Z" fill="black"/>
<path d="M21.1468 13.2472C21.1101 12.9719 21.2844 12.9077 21.4679 12.9077C22.3394 12.9077 23.211 12.9077 24.0871 12.9307C24.289 12.9307 24.477 13.0224 24.5963 13.1829C24.2798 13.5545 22.1376 13.6141 21.1422 13.2472H21.1468Z" fill="black"/>
<path d="M20.0412 12.0548C20.3439 12.0181 20.5916 11.9722 20.8439 11.9493C21.0595 11.9264 21.2201 12.0319 21.3164 12.2245C21.4036 12.408 21.2476 12.4997 21.1604 12.6282C20.4769 13.6236 19.4632 13.3897 18.5549 13.2245C17.9127 13.1053 17.1604 12.9906 16.8531 12.1832C16.6925 11.7704 16.7247 11.6328 17.1788 11.5869C17.4403 11.564 17.6834 11.6465 17.9219 11.7245C18.6008 11.9585 19.321 12.0686 20.0412 12.0548ZM26.0274 12.0731C26.2843 11.8897 26.5228 11.9355 26.7797 11.9906C27.5641 12.1511 28.3531 12.2566 29.0825 11.775C29.2797 11.6419 29.5045 11.6144 29.665 11.8071C29.8118 11.986 29.6788 12.1649 29.5779 12.3392C29.2568 12.908 28.7109 13.0915 28.1375 13.2383C27.6788 13.3575 27.2017 13.33 26.7384 13.3025C26.0091 13.2566 25.7384 12.7979 26.0274 12.0731Z" fill="black"/>
</g>
</svg>
