<svg width="15" height="12" viewBox="0 0 15 12" fill="none" xmlns="http://www.w3.org/2000/svg">
<g clip-path="url(#clip0_224_3459)">
<path d="M7.49987 0.75C7.31003 0.75 7.12253 0.782812 6.9444 0.846094L0.370185 3.22031C0.147529 3.30234 -0.000127525 3.51328 -0.000127525 3.75C-0.000127525 3.98672 0.147529 4.19766 0.370185 4.27969L1.72722 4.76953C1.34284 5.37422 1.12487 6.08906 1.12487 6.84141V7.5C1.12487 8.16563 0.871747 8.85234 0.602216 9.39375C0.449872 9.69844 0.276435 9.99844 0.0748725 10.275C-0.000127524 10.3758 -0.0212213 10.507 0.0209662 10.6266C0.0631537 10.7461 0.161591 10.8352 0.283466 10.8656L1.78347 11.2406C1.8819 11.2664 1.98737 11.2477 2.07409 11.1938C2.16081 11.1398 2.22175 11.0508 2.2405 10.95C2.44206 9.94688 2.34128 9.04688 2.19128 8.40234C2.11628 8.06953 2.0155 7.72969 1.87487 7.41797V6.84141C1.87487 6.13359 2.11393 5.46562 2.52878 4.93125C2.83112 4.56797 3.22253 4.275 3.6819 4.09453L7.36159 2.64844C7.55378 2.57344 7.77175 2.66719 7.84675 2.85938C7.92175 3.05156 7.828 3.26953 7.63581 3.34453L3.95612 4.79062C3.6655 4.90547 3.41003 5.08125 3.20144 5.29688L6.94206 6.64688C7.12018 6.71016 7.30768 6.74297 7.49753 6.74297C7.68737 6.74297 7.87487 6.71016 8.053 6.64688L14.6296 4.27969C14.8522 4.2 14.9999 3.98672 14.9999 3.75C14.9999 3.51328 14.8522 3.30234 14.6296 3.22031L8.05534 0.846094C7.87722 0.782812 7.68972 0.75 7.49987 0.75ZM2.99987 9.5625C2.99987 10.3898 5.0155 11.25 7.49987 11.25C9.98425 11.25 11.9999 10.3898 11.9999 9.5625L11.6413 6.15469L8.30847 7.35938C8.04831 7.45312 7.77409 7.5 7.49987 7.5C7.22565 7.5 6.94909 7.45312 6.69128 7.35938L3.35847 6.15469L2.99987 9.5625Z" fill="#737373"/>
</g>
<defs>
<clipPath id="clip0_224_3459">
<path d="M0 0H15V12H0V0Z" fill="white"/>
</clipPath>
</defs>
</svg>
