<svg width="30" height="32" viewBox="0 0 30 32" fill="none" xmlns="http://www.w3.org/2000/svg">
<path d="M30 32H0V0H30V32Z" stroke="#E5E7EB"/>
<g clip-path="url(#clip0_222_3189)">
<path d="M22 24H8V8H22V24Z" stroke="#E5E7EB"/>
<path d="M8 14.75C8 12.6781 9.67812 11 11.75 11H12C12.5531 11 13 11.4469 13 12C13 12.5531 12.5531 13 12 13H11.75C10.7844 13 10 13.7844 10 14.75V15H12C13.1031 15 14 15.8969 14 17V19C14 20.1031 13.1031 21 12 21H10C8.89688 21 8 20.1031 8 19V18V17V14.75ZM16 14.75C16 12.6781 17.6781 11 19.75 11H20C20.5531 11 21 11.4469 21 12C21 12.5531 20.5531 13 20 13H19.75C18.7844 13 18 13.7844 18 14.75V15H20C21.1031 15 22 15.8969 22 17V19C22 20.1031 21.1031 21 20 21H18C16.8969 21 16 20.1031 16 19V18V17V14.75Z" fill="#737373"/>
</g>
<defs>
<clipPath id="clip0_222_3189">
<rect width="14" height="16" fill="white" transform="translate(8 8)"/>
</clipPath>
</defs>
</svg>
