<svg width="14" height="17" viewBox="0 0 14 17" fill="none" xmlns="http://www.w3.org/2000/svg">
<path d="M14 17H0V0H14V17Z" stroke="#E5E7EB"/>
<g clip-path="url(#clip0_224_3953)">
<path d="M7.875 4.73848V11.3748C7.875 11.8588 7.48398 12.2498 7 12.2498C6.51602 12.2498 6.125 11.8588 6.125 11.3748V4.73848L4.11797 6.74551C3.77617 7.0873 3.22109 7.0873 2.8793 6.74551C2.5375 6.40371 2.5375 5.84863 2.8793 5.50684L6.3793 2.00684C6.72109 1.66504 7.27617 1.66504 7.61797 2.00684L11.118 5.50684C11.4598 5.84863 11.4598 6.40371 11.118 6.74551C10.7762 7.0873 10.2211 7.0873 9.8793 6.74551L7.875 4.73848ZM1.75 11.3748H5.25C5.25 12.34 6.03477 13.1248 7 13.1248C7.96523 13.1248 8.75 12.34 8.75 11.3748H12.25C13.2152 11.3748 14 12.1596 14 13.1248V13.9998C14 14.965 13.2152 15.7498 12.25 15.7498H1.75C0.784766 15.7498 0 14.965 0 13.9998V13.1248C0 12.1596 0.784766 11.3748 1.75 11.3748ZM11.8125 14.2186C11.9865 14.2186 12.1535 14.1494 12.2765 14.0263C12.3996 13.9033 12.4688 13.7364 12.4688 13.5623C12.4688 13.3883 12.3996 13.2213 12.2765 13.0983C12.1535 12.9752 11.9865 12.9061 11.8125 12.9061C11.6385 12.9061 11.4715 12.9752 11.3485 13.0983C11.2254 13.2213 11.1562 13.3883 11.1562 13.5623C11.1562 13.7364 11.2254 13.9033 11.3485 14.0263C11.4715 14.1494 11.6385 14.2186 11.8125 14.2186Z" fill="white"/>
</g>
<defs>
<clipPath id="clip0_224_3953">
<path d="M0 1.75H14V15.75H0V1.75Z" fill="white"/>
</clipPath>
</defs>
</svg>
