<svg width="114" height="47" viewBox="0 0 114 47" fill="none" xmlns="http://www.w3.org/2000/svg">
<path d="M114 42H0V0H114V42Z" stroke="#E5E7EB"/>
<path d="M8 3.5H106C110.142 3.5 113.5 6.85786 113.5 11V39C113.5 43.1421 110.142 46.5 106 46.5H8C3.85786 46.5 0.5 43.1421 0.5 39V11C0.5 6.85786 3.85786 3.5 8 3.5Z" stroke="#E5E5E5"/>
<path d="M39 46H9C4.58172 46 1 42.4183 1 38V12C1 7.58172 4.58172 4 9 4H39V46Z" fill="#F5F5F5"/>
<path d="M39 46H9C4.58172 46 1 42.4183 1 38V12C1 7.58172 4.58172 4 9 4H39V46Z" stroke="#E5E7EB"/>
<path d="M27 34H13V20H27V34Z" stroke="#E5E7EB"/>
<path d="M14.0938 21.3125C13.7301 21.3125 13.4375 21.6051 13.4375 21.9688V23.2812C13.4375 23.6449 13.7301 23.9375 14.0938 23.9375H15.4062C15.7699 23.9375 16.0625 23.6449 16.0625 23.2812V21.9688C16.0625 21.6051 15.7699 21.3125 15.4062 21.3125H14.0938ZM18.25 21.75C17.766 21.75 17.375 22.141 17.375 22.625C17.375 23.109 17.766 23.5 18.25 23.5H26.125C26.609 23.5 27 23.109 27 22.625C27 22.141 26.609 21.75 26.125 21.75H18.25ZM18.25 26.125C17.766 26.125 17.375 26.516 17.375 27C17.375 27.484 17.766 27.875 18.25 27.875H26.125C26.609 27.875 27 27.484 27 27C27 26.516 26.609 26.125 26.125 26.125H18.25ZM18.25 30.5C17.766 30.5 17.375 30.891 17.375 31.375C17.375 31.859 17.766 32.25 18.25 32.25H26.125C26.609 32.25 27 31.859 27 31.375C27 30.891 26.609 30.5 26.125 30.5H18.25ZM13.4375 26.3438V27.6562C13.4375 28.0199 13.7301 28.3125 14.0938 28.3125H15.4062C15.7699 28.3125 16.0625 28.0199 16.0625 27.6562V26.3438C16.0625 25.9801 15.7699 25.6875 15.4062 25.6875H14.0938C13.7301 25.6875 13.4375 25.9801 13.4375 26.3438ZM14.0938 30.0625C13.7301 30.0625 13.4375 30.3551 13.4375 30.7188V32.0312C13.4375 32.3949 13.7301 32.6875 14.0938 32.6875H15.4062C15.7699 32.6875 16.0625 32.3949 16.0625 32.0312V30.7188C16.0625 30.3551 15.7699 30.0625 15.4062 30.0625H14.0938Z" fill="#404040"/>
<path d="M77 41H39V11H77V41Z" stroke="#E5E7EB"/>
<g clip-path="url(#clip0_224_3378)">
<g clip-path="url(#clip1_224_3378)">
<path d="M51 21.625C51 20.6598 51.7848 19.875 52.75 19.875H63.25C64.2152 19.875 65 20.6598 65 21.625V30.375C65 31.3402 64.2152 32.125 63.25 32.125H52.75C51.7848 32.125 51 31.3402 51 30.375V21.625ZM52.75 23.375V30.375H57.125V23.375H52.75ZM63.25 23.375H58.875V30.375H63.25V23.375Z" fill="#525252"/>
</g>
</g>
<path d="M105.25 11C109.668 11 113.25 14.5817 113.25 19V33C113.25 37.4183 109.668 41 105.25 41H77V11H105.25Z" stroke="#E5E7EB"/>
<g clip-path="url(#clip2_224_3378)">
<g clip-path="url(#clip3_224_3378)">
<path d="M91.625 19.875V20.75H90.3125C89.5879 20.75 89 21.3379 89 22.0625V23.375H101.25V22.0625C101.25 21.3379 100.662 20.75 99.9375 20.75H98.625V19.875C98.625 19.391 98.234 19 97.75 19C97.266 19 96.875 19.391 96.875 19.875V20.75H93.375V19.875C93.375 19.391 92.984 19 92.5 19C92.016 19 91.625 19.391 91.625 19.875ZM101.25 24.25H89V31.6875C89 32.4121 89.5879 33 90.3125 33H99.9375C100.662 33 101.25 32.4121 101.25 31.6875V24.25Z" fill="#525252"/>
</g>
</g>
<defs>
<clipPath id="clip0_224_3378">
<rect width="14" height="14" fill="white" transform="translate(51 19)"/>
</clipPath>
<clipPath id="clip1_224_3378">
<path d="M51 19H65V33H51V19Z" fill="white"/>
</clipPath>
<clipPath id="clip2_224_3378">
<rect width="12.25" height="14" fill="white" transform="translate(89 19)"/>
</clipPath>
<clipPath id="clip3_224_3378">
<path d="M89 19H101.25V33H89V19Z" fill="white"/>
</clipPath>
</defs>
</svg>
