<svg width="838" height="24" viewBox="0 0 838 24" fill="none" xmlns="http://www.w3.org/2000/svg">
<path d="M838 24H0V0H838V24Z" stroke="#E5E7EB"/>
<path d="M797.109 10C798.214 10 799.109 10.8954 799.109 12C799.109 13.1046 798.214 14 797.109 14H2C0.895435 14 0 13.1046 0 12C0 10.8954 0.895431 10 2 10H797.109Z" fill="#E5E5E5"/>
<path d="M797.109 10C798.214 10 799.109 10.8954 799.109 12C799.109 13.1046 798.214 14 797.109 14H2C0.895435 14 0 13.1046 0 12C0 10.8954 0.895431 10 2 10H797.109Z" stroke="#E5E7EB"/>
<path d="M0.5 10C0.776142 10 1 10.2239 1 10.5V13.5C1 13.7761 0.776142 14 0.5 14C0.223858 14 0 13.7761 0 13.5V10.5C0 10.2239 0.223858 10 0.5 10Z" fill="#525252"/>
<path d="M0.5 10C0.776142 10 1 10.2239 1 10.5V13.5C1 13.7761 0.776142 14 0.5 14C0.223858 14 0 13.7761 0 13.5V10.5C0 10.2239 0.223858 10 0.5 10Z" stroke="#E5E7EB"/>
</svg>
