<svg width="21" height="21" viewBox="0 0 21 21" fill="none" xmlns="http://www.w3.org/2000/svg">
<path fill-rule="evenodd" clip-rule="evenodd" d="M5.49149 7.57042C5.64192 7.4257 5.84364 7.34662 6.05234 7.35055C6.26104 7.35449 6.45964 7.44113 6.60449 7.59142L10.5 11.7263L14.3955 7.59142C14.4663 7.51336 14.5521 7.4503 14.6477 7.40599C14.7433 7.36168 14.8469 7.33702 14.9522 7.33346C15.0575 7.3299 15.1625 7.34752 15.2609 7.38527C15.3593 7.42303 15.4491 7.48015 15.525 7.55326C15.6009 7.62636 15.6614 7.71396 15.7028 7.81086C15.7443 7.90777 15.7659 8.012 15.7663 8.11739C15.7667 8.22278 15.7459 8.32719 15.7053 8.42441C15.6646 8.52164 15.6048 8.60972 15.5295 8.68342L11.067 13.4084C10.9935 13.4846 10.9055 13.5453 10.808 13.5867C10.7106 13.6281 10.6058 13.6494 10.5 13.6494C10.3941 13.6494 10.2894 13.6281 10.1919 13.5867C10.0945 13.5453 10.0065 13.4846 9.93299 13.4084L5.47049 8.68342C5.32577 8.533 5.24669 8.33127 5.25063 8.12257C5.25457 7.91387 5.3412 7.71528 5.49149 7.57042Z" fill="black"/>
</svg>
